<svg width="900" height="275" viewBox="0 0 900 275" fill="none" xmlns="http://www.w3.org/2000/svg">
  <g clip-path="url(#clip0_3_19)">
    <path d="M116.817 259.794L17.3655 198.367L112.086 131.647L211.537 193.074L116.817 259.794Z" fill="url(#paint0_linear_3_19)"/>
    <path d="M17 75.4899L117 14V260L17 198.496V75.4899Z" fill="url(#paint1_linear_3_19)"/>
    <path d="M269 181V77.8H281.9V122.95H300.35L335.75 77.8H350L310.85 127.9L350.45 181H335.45L300.35 134.2H281.9V181H269ZM373.988 181V77.8H421.388C427.888 77.8 433.038 78.6 436.838 80.2C440.738 81.7 443.588 83.9 445.388 86.8C447.288 89.6 448.538 92.9 449.138 96.7C449.738 100.5 450.038 104.55 450.038 108.85C450.038 112.55 449.688 116.4 448.988 120.4C448.388 124.3 446.938 127.85 444.638 131.05C442.438 134.25 438.938 136.6 434.138 138.1L451.538 181H437.738L420.638 137.65L424.238 139.45C423.538 139.65 422.688 139.8 421.688 139.9C420.688 140 419.338 140.05 417.638 140.05H386.888V181H373.988ZM386.888 128.8H415.838C420.838 128.8 424.738 128.4 427.538 127.6C430.438 126.8 432.538 125.55 433.838 123.85C435.238 122.15 436.138 120.1 436.538 117.7C436.938 115.2 437.138 112.25 437.138 108.85C437.138 105.45 436.938 102.55 436.538 100.15C436.238 97.65 435.438 95.6 434.138 94C432.938 92.3 430.938 91.05 428.138 90.25C425.438 89.35 421.688 88.9 416.888 88.9H386.888V128.8ZM469.788 181L508.788 77.8H524.988L563.838 181H550.488L539.838 152.8H493.488L482.838 181H469.788ZM497.388 141.55H535.938L517.038 91H516.288L497.388 141.55ZM587.627 181V77.8H600.527V181H587.627ZM635.047 181V77.8H647.947V122.95H666.397L701.797 77.8H716.047L676.897 127.9L716.497 181H701.497L666.397 134.2H647.947V181H635.047ZM740.035 181V77.8H752.935V181H740.035ZM809.505 181V89.2H776.955V77.8H855.105V89.2H822.405V181H809.505Z" fill="#000000"/>
  </g>
  <defs>
    <linearGradient id="paint0_linear_3_19" x1="112.086" y1="131.647" x2="115.58" y2="259.828" gradientUnits="userSpaceOnUse">
      <stop stop-color="#FF2D55"/>
      <stop offset="1" stop-color="#FFCC00"/>
    </linearGradient>
    <linearGradient id="paint1_linear_3_19" x1="67" y1="14" x2="67" y2="260" gradientUnits="userSpaceOnUse">
      <stop stop-color="#32ADE6"/>
      <stop offset="0.505" stop-color="#AF52DE"/>
      <stop offset="1" stop-color="#FF2D55"/>
    </linearGradient>
    <clipPath id="clip0_3_19">
      <rect width="900" height="275" fill="white"/>
    </clipPath>
  </defs>
</svg>
