<svg width="941" height="275" viewBox="0 0 941 275" fill="none" xmlns="http://www.w3.org/2000/svg">
<g clip-path="url(#clip0_3_19)">
<path d="M151.193 142V38.8H164.093V83.95H182.543L217.943 38.8H232.193L193.043 88.9L232.643 142H217.643L182.543 95.2H164.093V142H151.193ZM266.682 142V38.8H314.082C320.582 38.8 325.732 39.6 329.532 41.2C333.432 42.7 336.282 44.9 338.082 47.8C339.982 50.6 341.232 53.9 341.832 57.7C342.432 61.5 342.732 65.55 342.732 69.85C342.732 73.55 342.382 77.4 341.682 81.4C341.082 85.3 339.632 88.85 337.332 92.05C335.132 95.25 331.632 97.6 326.832 99.1L344.232 142H330.432L313.332 98.65L316.932 100.45C316.232 100.65 315.382 100.8 314.382 100.9C313.382 101 312.032 101.05 310.332 101.05H279.582V142H266.682ZM279.582 89.8H308.532C313.532 89.8 317.432 89.4 320.232 88.6C323.132 87.8 325.232 86.55 326.532 84.85C327.932 83.15 328.832 81.1 329.232 78.7C329.632 76.2 329.832 73.25 329.832 69.85C329.832 66.45 329.632 63.55 329.232 61.15C328.932 58.65 328.132 56.6 326.832 55C325.632 53.3 323.632 52.05 320.832 51.25C318.132 50.35 314.382 49.9 309.582 49.9H279.582V89.8ZM372.981 142L411.981 38.8H428.181L467.031 142H453.681L443.031 113.8H396.681L386.031 142H372.981ZM400.581 102.55H439.131L420.231 52H419.481L400.581 102.55ZM501.32 142V38.8H514.22V142H501.32ZM559.24 142V38.8H572.14V83.95H590.59L625.99 38.8H640.24L601.09 88.9L640.69 142H625.69L590.59 95.2H572.14V142H559.24ZM674.729 142V38.8H687.629V142H674.729ZM754.698 142V50.2H722.148V38.8H800.298V50.2H767.598V142H754.698Z" fill="white"/>
<path d="M260 211C257.791 211 256 212.791 256 215C256 217.209 257.791 219 260 219V211ZM260 219H470V211H260V219Z" fill="#FFD700"/>
<path d="M680.981 220C683.19 220.01 684.989 218.228 685 216.019C685.01 213.81 683.228 212.011 681.019 212L680.981 220ZM469.981 219L680.981 220L681.019 212L470.019 211L469.981 219Z" fill="#0057B8"/>
</g>
<defs>
<clipPath id="clip0_3_19">
<rect width="941" height="275" fill="white"/>
</clipPath>
</defs>
</svg>
