<svg width="700" height="300" viewBox="0 0 700 300" fill="none" xmlns="http://www.w3.org/2000/svg">
<rect width="700" height="300" rx="50" fill="black"/>
<path d="M161.817 272.794L62.3655 211.367L157.086 144.647L256.537 206.074L161.817 272.794Z" fill="url(#paint0_linear_9_2)"/>
<path d="M62 88.4899L162 27V273L62 211.496V88.4899Z" fill="url(#paint1_linear_9_2)"/>
<path d="M267.2 180V123.584H274.252V148.266H284.338L303.69 123.584H311.48L290.078 150.972L311.726 180H303.526L284.338 154.416H274.252V180H267.2ZM324.594 180V123.584H350.506C354.059 123.584 356.874 124.021 358.952 124.896C361.084 125.716 362.642 126.919 363.626 128.504C364.664 130.035 365.348 131.839 365.676 133.916C366.004 135.993 366.168 138.207 366.168 140.558C366.168 142.581 365.976 144.685 365.594 146.872C365.266 149.004 364.473 150.945 363.216 152.694C362.013 154.443 360.1 155.728 357.476 156.548L366.988 180H359.444L350.096 156.302L352.064 157.286C351.681 157.395 351.216 157.477 350.67 157.532C350.123 157.587 349.385 157.614 348.456 157.614H331.646V180H324.594ZM331.646 151.464H347.472C350.205 151.464 352.337 151.245 353.868 150.808C355.453 150.371 356.601 149.687 357.312 148.758C358.077 147.829 358.569 146.708 358.788 145.396C359.006 144.029 359.116 142.417 359.116 140.558C359.116 138.699 359.006 137.114 358.788 135.802C358.624 134.435 358.186 133.315 357.476 132.44C356.82 131.511 355.726 130.827 354.196 130.39C352.72 129.898 350.67 129.652 348.046 129.652H331.646V151.464ZM376.964 180L398.284 123.584H407.14L428.378 180H421.08L415.258 164.584H389.92L384.098 180H376.964ZM392.052 158.434H413.126L402.794 130.8H402.384L392.052 158.434ZM441.383 180V123.584H448.435V180H441.383ZM509.81 180.656C505.874 180.656 502.567 180.437 499.888 180C497.21 179.508 495.023 178.688 493.328 177.54C491.634 176.337 490.322 174.67 489.392 172.538C488.518 170.351 487.916 167.563 487.588 164.174C487.26 160.785 487.096 156.657 487.096 151.792C487.096 146.927 487.26 142.827 487.588 139.492C487.916 136.103 488.518 133.342 489.392 131.21C490.322 129.023 491.634 127.329 493.328 126.126C495.023 124.923 497.21 124.103 499.888 123.666C502.567 123.174 505.874 122.928 509.81 122.928C511.341 122.928 512.899 122.983 514.484 123.092C516.124 123.201 517.682 123.338 519.158 123.502C520.634 123.666 521.919 123.885 523.012 124.158V129.816C521.755 129.652 520.443 129.515 519.076 129.406C517.764 129.242 516.452 129.133 515.14 129.078C513.828 129.023 512.653 128.996 511.614 128.996C508.444 128.996 505.792 129.133 503.66 129.406C501.528 129.679 499.834 130.226 498.576 131.046C497.319 131.811 496.362 133.041 495.706 134.736C495.105 136.376 494.695 138.59 494.476 141.378C494.258 144.111 494.148 147.583 494.148 151.792C494.148 156.001 494.258 159.5 494.476 162.288C494.695 165.021 495.105 167.235 495.706 168.93C496.362 170.57 497.319 171.8 498.576 172.62C499.834 173.385 501.528 173.905 503.66 174.178C505.792 174.451 508.444 174.588 511.614 174.588C513.473 174.588 515.496 174.506 517.682 174.342C519.869 174.178 521.755 173.987 523.34 173.768V179.59C522.192 179.809 520.826 179.973 519.24 180.082C517.71 180.246 516.124 180.383 514.484 180.492C512.844 180.601 511.286 180.656 509.81 180.656ZM538.69 180V123.584H556.566C561.213 123.584 565.012 123.803 567.964 124.24C570.916 124.677 573.24 125.47 574.934 126.618C576.684 127.766 577.968 129.406 578.788 131.538C579.608 133.67 580.128 136.376 580.346 139.656C580.565 142.936 580.674 146.981 580.674 151.792C580.674 156.603 580.565 160.648 580.346 163.928C580.128 167.208 579.608 169.914 578.788 172.046C577.968 174.178 576.684 175.818 574.934 176.966C573.24 178.114 570.916 178.907 567.964 179.344C565.012 179.781 561.213 180 556.566 180H538.69ZM545.742 173.932H555.418C558.862 173.932 561.705 173.85 563.946 173.686C566.188 173.522 567.964 173.112 569.276 172.456C570.588 171.745 571.545 170.625 572.146 169.094C572.748 167.509 573.13 165.322 573.294 162.534C573.513 159.746 573.622 156.165 573.622 151.792C573.622 147.419 573.513 143.865 573.294 141.132C573.13 138.344 572.72 136.157 572.064 134.572C571.463 132.987 570.506 131.866 569.194 131.21C567.882 130.499 566.106 130.062 563.864 129.898C561.678 129.734 558.862 129.652 555.418 129.652H545.742V173.932ZM597.686 180V123.584H604.738V148.266H614.824L634.176 123.584H641.966L620.564 150.972L642.212 180H634.012L614.824 154.416H604.738V180H597.686Z" fill="#F2F2F7"/>
<defs>
<linearGradient id="paint0_linear_9_2" x1="157.086" y1="144.647" x2="160.58" y2="272.828" gradientUnits="userSpaceOnUse">
<stop stop-color="#FF2D55"/>
<stop offset="1" stop-color="#FFCC00"/>
</linearGradient>
<linearGradient id="paint1_linear_9_2" x1="112" y1="27" x2="112" y2="273" gradientUnits="userSpaceOnUse">
<stop stop-color="#32ADE6"/>
<stop offset="0.505" stop-color="#AF52DE"/>
<stop offset="1" stop-color="#FF2D55"/>
</linearGradient>
</defs>
</svg>
