<svg width="700" height="300" viewBox="0 0 700 300" fill="none" xmlns="http://www.w3.org/2000/svg">
<rect width="700" height="300" rx="50" fill="black"/>
<path d="M161.817 272.794L62.3655 211.367L157.086 144.647L256.537 206.074L161.817 272.794Z" fill="url(#paint0_linear_9_2)"/>
<path d="M62 88.4899L162 27V273L62 211.496V88.4899Z" fill="url(#paint1_linear_9_2)"/>
<path d="M267.2 180V123.584H274.252V148.266H284.338L303.69 123.584H311.48L290.078 150.972L311.726 180H303.526L284.338 154.416H274.252V180H267.2ZM324.594 180V123.584H350.506C354.059 123.584 356.874 124.021 358.952 124.896C361.084 125.716 362.642 126.919 363.626 128.504C364.664 130.035 365.348 131.839 365.676 133.916C366.004 135.993 366.168 138.207 366.168 140.558C366.168 142.581 365.976 144.685 365.594 146.872C365.266 149.004 364.473 150.945 363.216 152.694C362.013 154.443 360.1 155.728 357.476 156.548L366.988 180H359.444L350.096 156.302L352.064 157.286C351.681 157.395 351.216 157.477 350.67 157.532C350.123 157.587 349.385 157.614 348.456 157.614H331.646V180H324.594ZM331.646 151.464H347.472C350.205 151.464 352.337 151.245 353.868 150.808C355.453 150.371 356.601 149.687 357.312 148.758C358.077 147.829 358.569 146.708 358.788 145.396C359.006 144.029 359.116 142.417 359.116 140.558C359.116 138.699 359.006 137.114 358.788 135.802C358.624 134.435 358.186 133.315 357.476 132.44C356.82 131.511 355.726 130.827 354.196 130.39C352.72 129.898 350.67 129.652 348.046 129.652H331.646V151.464ZM376.964 180L398.284 123.584H407.14L428.378 180H421.08L415.258 164.584H389.92L384.098 180H376.964ZM392.052 158.434H413.126L402.794 130.8H402.384L392.052 158.434ZM441.383 180V123.584H448.435V180H441.383ZM489.064 180V123.584H496.116V148.266H506.202L525.554 123.584H533.344L511.942 150.972L533.59 180H525.39L506.202 154.416H496.116V180H489.064ZM546.458 180V123.584H553.51V180H546.458ZM584.435 180V129.816H566.641V123.584H609.363V129.816H591.487V180H584.435Z" fill="#F2F2F7"/>
<defs>
<linearGradient id="paint0_linear_9_2" x1="157.086" y1="144.647" x2="160.58" y2="272.828" gradientUnits="userSpaceOnUse">
<stop stop-color="#FF2D55"/>
<stop offset="1" stop-color="#FFCC00"/>
</linearGradient>
<linearGradient id="paint1_linear_9_2" x1="112" y1="27" x2="112" y2="273" gradientUnits="userSpaceOnUse">
<stop stop-color="#32ADE6"/>
<stop offset="0.505" stop-color="#AF52DE"/>
<stop offset="1" stop-color="#FF2D55"/>
</linearGradient>
</defs>
</svg>
