<svg width="700" height="300" viewBox="0 0 700 300" fill="none" xmlns="http://www.w3.org/2000/svg">
<rect width="700" height="300" rx="50" fill="black"/>
<path d="M161.817 272.794L62.3655 211.367L157.086 144.647L256.537 206.074L161.817 272.794Z" fill="url(#paint0_linear_9_2)"/>
<path d="M62 88.4899L162 27V273L62 211.496V88.4899Z" fill="url(#paint1_linear_9_2)"/>
<path d="M277.286 180L261.952 123.584H269.168L281.714 170.816H282.206L295.982 123.584H303.362L317.22 170.816H317.712L329.93 123.584H336.982L321.648 180H313.284L299.672 134.326H299.344L285.732 180H277.286ZM350.619 180V123.584H387.273V129.652H357.671V148.43H383.419V154.58H357.671V173.932H387.273V180H350.619ZM402.487 180V123.584H428.727C432.445 123.584 435.397 124.158 437.583 125.306C439.77 126.454 441.328 128.094 442.257 130.226C443.187 132.303 443.651 134.818 443.651 137.77C443.651 140.175 443.323 142.307 442.667 144.166C442.011 145.97 440.973 147.446 439.551 148.594C438.185 149.742 436.353 150.562 434.057 151.054V151.382C436.845 151.874 438.977 152.776 440.453 154.088C441.929 155.345 442.941 156.931 443.487 158.844C444.034 160.757 444.307 162.862 444.307 165.158C444.307 167.126 444.061 169.012 443.569 170.816C443.132 172.62 442.339 174.205 441.191 175.572C440.098 176.939 438.513 178.032 436.435 178.852C434.358 179.617 431.679 180 428.399 180H402.487ZM409.539 173.932H426.759C429.438 173.932 431.543 173.631 433.073 173.03C434.604 172.374 435.67 171.335 436.271 169.914C436.927 168.438 437.255 166.552 437.255 164.256C437.255 161.905 436.9 160.019 436.189 158.598C435.533 157.122 434.44 156.083 432.909 155.482C431.379 154.826 429.329 154.498 426.759 154.498H409.539V173.932ZM409.539 148.348H426.431C428.727 148.348 430.613 148.02 432.089 147.364C433.62 146.708 434.741 145.697 435.451 144.33C436.217 142.909 436.599 141.159 436.599 139.082C436.599 136.786 436.299 134.955 435.697 133.588C435.151 132.221 434.139 131.237 432.663 130.636C431.187 129.98 429.11 129.652 426.431 129.652H409.539V148.348ZM476.697 180L498.017 123.584H506.873L528.111 180H520.813L514.991 164.584H489.653L483.831 180H476.697ZM491.785 158.434H512.859L502.527 130.8H502.117L491.785 158.434ZM541.115 180V123.584H565.797C569.405 123.584 572.275 124.049 574.407 124.978C576.594 125.853 578.207 127.083 579.245 128.668C580.339 130.253 581.077 132.139 581.459 134.326C581.842 136.458 582.033 138.809 582.033 141.378C582.033 143.838 581.842 146.161 581.459 148.348C581.131 150.48 580.421 152.366 579.327 154.006C578.234 155.646 576.594 156.931 574.407 157.86C572.221 158.789 569.296 159.254 565.633 159.254H548.167V180H541.115ZM548.167 153.104H563.337C566.016 153.104 568.121 152.885 569.651 152.448C571.237 152.011 572.412 151.327 573.177 150.398C573.943 149.414 574.435 148.184 574.653 146.708C574.872 145.232 574.981 143.455 574.981 141.378C574.981 139.301 574.872 137.524 574.653 136.048C574.489 134.572 574.025 133.369 573.259 132.44C572.549 131.511 571.401 130.827 569.815 130.39C568.285 129.898 566.18 129.652 563.501 129.652H548.167V153.104ZM597.067 180V123.584H604.119V180H597.067Z" fill="#F2F2F7"/>
<defs>
<linearGradient id="paint0_linear_9_2" x1="157.086" y1="144.647" x2="160.58" y2="272.828" gradientUnits="userSpaceOnUse">
<stop stop-color="#FF2D55"/>
<stop offset="1" stop-color="#FFCC00"/>
</linearGradient>
<linearGradient id="paint1_linear_9_2" x1="112" y1="27" x2="112" y2="273" gradientUnits="userSpaceOnUse">
<stop stop-color="#32ADE6"/>
<stop offset="0.505" stop-color="#AF52DE"/>
<stop offset="1" stop-color="#FF2D55"/>
</linearGradient>
</defs>
</svg>
