<?xml version="1.0" standalone="no"?>
<!DOCTYPE svg PUBLIC "-//W3C//DTD SVG 1.1//EN" "http://www.w3.org/Graphics/SVG/1.1/DTD/svg11.dtd" >
<svg xmlns="http://www.w3.org/2000/svg">
<metadata>Generated by IcoMoon</metadata>
<defs>
<font id="krai-icons" horiz-adv-x="1024">
<font-face units-per-em="1024" ascent="960" descent="-64" />
<missing-glyph horiz-adv-x="1024" />
<glyph unicode="&#x20;" horiz-adv-x="512" d="" />
<glyph unicode="&#xe900;" glyph-name="sale" d="M843.379 549.263c2.317-1.256 4.531-2.454 6.549-3.556l0.823-0.443c39.535-21.249 87.923-47.263 87.923-97.264 0-49.997-48.388-76.011-87.923-97.263l-0.823-0.444c-1.579-0.862-3.285-1.783-5.073-2.752-14.131-7.637-33.425-18.069-37.594-24.128-0.375-4.497 5.841-25.796 10.539-41.899v0-0.004l1.835-6.31 0.047-0.158c13.218-44.335 28.075-94.178-6.447-128.695-34.517-34.517-84.361-19.661-128.695-6.447l-1.378 0.41-0.004 0.004c-15.919 4.732-41.66 12.39-49.975 10.726-3.29-2.923-12.838-20.561-20.335-34.406-1.259-2.321-2.453-4.531-3.558-6.554l-0.439-0.823c-21.252-39.531-47.266-87.923-97.267-87.923-49.997 0-76.011 48.393-97.263 87.923l-0.443 0.823c-0.86 1.579-1.779 3.277-2.743 5.060l-0.008 0.017c-7.639 14.127-18.069 33.425-24.129 37.589-3.84 0-32-7.68-48.213-12.373l-0.158-0.047c-44.334-13.214-94.176-28.070-128.695 6.447s-19.662 84.361-6.447 128.695l0.047 0.158 0.364 1.22c4.735 15.919 12.393 41.664 10.73 49.98-2.924 3.29-20.56 12.838-34.408 20.339-2.319 1.254-4.532 2.453-6.552 3.554l-0.823 0.444c-39.532 21.252-87.923 47.266-87.923 97.263 0 50.001 48.391 76.015 87.923 97.264l0.823 0.443c1.582 0.863 3.287 1.785 5.075 2.751 14.131 7.639 33.425 18.069 37.591 24.129 0.375 4.499-5.839 25.801-10.537 41.903l-1.837 6.311-0.047 0.158c-13.215 44.334-28.072 94.176 6.447 128.695s84.362 19.662 128.695 6.447l0.158-0.047c15.787-4.693 42.24-12.373 51.2-11.093 3.289 2.924 12.839 20.559 20.337 34.407l0.001 0.002c1.255 2.319 2.453 4.531 3.555 6.551l0.443 0.824c21.251 39.532 47.265 87.922 97.262 87.922 50.001 0 76.015-48.391 97.267-87.923l0.439-0.824c0.862-1.58 1.783-3.285 2.752-5.071v-0.004c7.637-14.131 18.069-33.425 24.128-37.591 4.279-0.389 27.345 6.312 43.674 11.056v0 0l4.698 1.364c44.335 13.215 94.178 28.072 128.695-6.447 34.522-34.519 19.665-84.361 6.447-128.695l-0.047-0.158-0.363-1.221v-0.001c-4.736-15.916-12.395-41.661-10.731-49.978 2.927-3.289 20.561-12.838 34.406-20.337h0.004zM729.182 357.973c13.227 31.573 47.36 49.92 80.213 67.413h-0.427c11.52 5.973 28.587 15.36 38.4 22.613-9.813 7.253-26.88 16.64-38.4 22.613-32.853 17.493-66.987 35.84-80.213 67.414-13.653 32.427-2.56 70.4 8.533 107.093 3.413 11.093 8.107 27.733 10.24 39.253-11.52-2.133-28.16-6.827-39.253-10.24l-2.726-0.794c-35.823-10.428-72.324-21.054-104.367-7.739-31.573 13.227-49.92 47.36-67.413 80.213-1.118 2.014-2.313 4.198-3.567 6.482-5.914 10.784-13.060 23.82-19.046 31.918-7.253-10.24-16.64-26.88-22.613-38.4-17.493-32.853-35.84-66.987-67.412-80.213-32.427-13.653-70.4-2.56-107.093 8.533-11.093 3.413-27.733 8.107-39.253 10.24 2.133-11.52 6.827-28.16 10.24-39.253l0.641-2.204c10.476-36.007 21.272-73.111 7.892-104.89-13.227-31.574-47.36-49.92-80.213-67.414-11.52-5.973-28.587-15.36-38.4-22.613 9.813-7.253 26.88-16.64 38.4-22.613 32.853-17.493 66.987-35.84 80.213-67.413 13.653-32.427 2.56-70.4-8.533-107.093-3.413-11.093-8.107-27.733-10.24-39.253 11.52 2.133 28.16 6.827 39.253 10.24l2.944 0.866c23.796 6.985 47.923 14.067 70.869 14.067 11.947 0 23.040-2.133 33.707-6.4 31.572-13.227 49.919-47.36 67.412-80.213 1.114-1.997 2.3-4.164 3.541-6.43l0.017-0.030 0.013-0.021c5.909-10.786 13.060-23.821 19.042-31.919 7.253 10.24 16.64 26.88 22.613 38.4 17.493 32.853 35.84 66.987 67.413 80.213 32.427 13.653 70.4 2.56 107.093-8.533 11.093-3.413 27.733-8.107 39.253-10.24-2.133 11.52-6.827 28.16-10.24 39.253l-0.64 2.206c-10.475 36.006-21.274 73.109-7.893 104.887zM469.342 554.668c0-35.346-28.651-64.001-63.998-64.001s-64 28.655-64 64.001 28.654 64 64 64c35.348 0 63.998-28.654 63.998-64zM620.809 611.414c-19.627 13.227-46.080 7.68-59.307-11.947l-170.665-256c-13.227-19.627-7.68-46.080 11.947-59.307 7.253-4.693 15.36-7.253 23.467-7.253 13.652 0 27.305 6.827 35.412 19.2l170.667 256c13.227 19.627 7.68 46.080-11.947 59.307h0.427zM682.675 341.333c0-35.345-28.651-64-64-64-35.345 0-64 28.655-64 64s28.655 64 64 64c35.349 0 64-28.655 64-64z" />
<glyph unicode="&#xe901;" glyph-name="status" d="M383.827 767.573c-11.507 20.48-37.505 28.16-57.962 16.64-28.128-15.36-54.126-34.56-77.14-56.32-17.047-16.213-17.9-43.093-2.131-60.16 8.524-8.96 19.604-13.653 31.112-13.653 10.655 0 20.884 3.84 28.981 11.52 18.326 17.067 38.357 32 60.093 43.947 20.457 11.52 28.128 37.547 16.621 58.027h0.426zM240.201 322.56c-9.802 21.333-34.947 30.72-56.683 20.907-21.31-9.813-30.686-35.413-20.884-56.747 13.212-29.013 30.26-56.32 50.717-81.067 8.524-10.24 20.883-15.787 33.243-15.787 9.376 0 18.752 2.987 26.85 9.387 18.327 14.933 20.884 41.813 6.393 60.16-15.769 19.2-28.981 40.533-39.21 63.147h-0.426zM170.732 428.373c22.162 0 40.914 17.067 42.619 39.68 0.426 7.253 1.278 14.080 2.131 21.333 2.557 17.92 6.393 35.413 11.933 52.053 7.245 22.187-5.114 46.507-27.276 53.76-22.588 7.253-46.455-4.693-53.7-27.307-7.245-21.76-12.359-43.947-15.343-66.56-1.279-8.96-2.131-18.347-2.984-27.307-1.705-23.467 16.195-43.947 39.636-45.227 0.852 0 2.131 0 2.983 0v-0.427zM352.715 478.293c-16.621-16.64-16.621-43.52 0-60.16l85.237-85.333c8.525-8.533 19.179-12.373 30.259-12.373 11.085 0 21.739 4.267 30.263 12.373l170.475 170.667c16.623 16.64 16.623 43.52 0 60.16s-43.473 16.64-60.092 0l-140.22-140.373-54.977 55.040c-16.622 16.64-43.471 16.64-60.093 0h-0.852zM816.836 679.253c-61.372 81.92-151.296 134.827-252.732 148.907-17.899 2.56-35.797 3.84-53.274 3.84h-0.849c-23.441 0-42.193-19.2-42.193-42.667s19.601-42.667 43.042-42.667c14.067 0 27.703-0.853 41.766-2.987 78.848-11.093 148.745-52.053 196.902-115.627s68.617-142.080 57.536-221.44c-11.081-79.36-51.998-148.907-115.499-197.12s-142.349-68.267-221.193-57.6c-24.721 3.413-49.012 9.813-71.601 19.2-21.736 8.96-46.455-1.28-55.405-23.467-8.95-21.76 1.705-46.933 23.441-55.467 29.407-11.947 60.518-20.48 92.484-24.747 2.129 0 3.836 0 5.965 0 16.196-2.133 31.966-3.413 47.735-3.413 82.679 0 163.23 26.88 230.566 77.653 81.83 61.867 134.677 151.893 148.745 253.44 14.063 101.547-11.934 202.667-73.732 284.587l-1.707-0.427z" />
<glyph unicode="&#xe902;" glyph-name="location-point" d="M338.754 259.93c8.069-22.14-3.337-46.63-25.477-54.699-23.72-8.644-39.879-17.873-49.311-25.954-5.053-4.331-6.992-7.228-7.696-8.61 0.719-1.412 2.733-4.42 8.061-8.922 9.785-8.26 26.474-17.621 50.831-26.321 48.342-17.267 117.931-28.757 196.839-28.757s148.497 11.49 196.838 28.757c24.358 8.7 41.045 18.061 50.833 26.321 5.325 4.501 7.339 7.509 8.060 8.922-0.704 1.382-2.645 4.279-7.697 8.61-9.434 8.081-25.591 17.31-49.31 25.954-22.14 8.068-33.549 32.559-25.476 54.699 8.068 22.14 32.555 33.545 54.694 25.476 29.069-10.594 55.578-24.162 75.614-41.327 19.883-17.037 37.777-41.685 37.777-73.412 0-32.158-18.368-57.024-38.609-74.121-20.442-17.259-47.492-30.882-77.184-41.485-59.755-21.342-139.499-33.728-225.54-33.728s-165.786 12.386-225.539 33.728c-29.691 10.603-56.741 24.226-77.183 41.485-20.244 17.097-38.611 41.963-38.611 74.121 0 31.727 17.894 56.375 37.777 73.412 20.038 17.165 46.545 30.733 75.612 41.327 22.14 8.068 46.629-3.337 54.697-25.476zM404.111 582.979c0-60.445 46.752-106.665 107.885-106.665 61.137 0 107.887 46.221 107.887 106.665s-46.75 106.667-107.887 106.667c-61.133 0-107.885-46.222-107.885-106.667zM476.036 582.979c0 21.333 14.383 35.556 35.959 35.556s35.964-14.223 35.964-35.556c0-21.333-14.387-35.555-35.964-35.555s-35.959 14.222-35.959 35.555zM490.423 199.113c3.597-3.558 14.383-7.113 21.577-7.113s17.98 3.554 21.577 7.113c10.79 7.108 230.157 192 230.157 383.999 0 138.667-111.484 248.889-251.733 248.889-140.251 0-251.733-110.222-251.733-248.889 0-191.999 219.366-376.89 230.157-383.999zM332.19 583.111c0 99.555 79.116 177.777 179.81 177.777s179.81-78.222 179.81-177.777c0-127.999-125.867-259.557-179.81-309.332-53.943 49.775-179.81 184.887-179.81 309.332z" />
<glyph unicode="&#xe903;" glyph-name="download-upload" d="M338.754 259.93c8.069-22.14-3.337-46.63-25.477-54.699-23.72-8.644-39.879-17.873-49.311-25.954-5.053-4.331-6.992-7.228-7.696-8.61 0.719-1.412 2.733-4.42 8.061-8.922 9.785-8.26 26.474-17.621 50.831-26.321 48.342-17.267 117.931-28.757 196.839-28.757s148.497 11.49 196.838 28.757c24.358 8.7 41.045 18.061 50.833 26.321 5.325 4.501 7.339 7.509 8.060 8.922-0.704 1.382-2.645 4.279-7.697 8.61-9.434 8.081-25.591 17.31-49.31 25.954-22.14 8.068-33.549 32.559-25.476 54.699 8.068 22.14 32.555 33.545 54.694 25.476 29.069-10.594 55.578-24.162 75.614-41.327 19.883-17.037 37.777-41.685 37.777-73.412 0-32.158-18.368-57.024-38.609-74.121-20.442-17.259-47.492-30.882-77.184-41.485-59.755-21.342-139.499-33.728-225.54-33.728s-165.786 12.386-225.539 33.728c-29.691 10.603-56.741 24.226-77.183 41.485-20.244 17.097-38.611 41.963-38.611 74.121 0 31.727 17.894 56.375 37.777 73.412 20.038 17.165 46.545 30.733 75.612 41.327 22.14 8.068 46.629-3.337 54.697-25.476zM528.67 828.62c5.559-2.112 10.261-5.492 14.11-9.294h-0.858l128.243-126.733c16.67-16.475 16.67-43.089 0-59.564-16.674-16.475-43.605-16.475-60.275 0l-55.142 54.495v-308.384l55.142 54.498c16.67 16.474 43.601 16.474 60.275 0 16.67-16.478 16.67-43.089 0-59.567l-128.243-126.733h0.858c-3.849-3.802-8.55-7.181-14.11-9.293-5.129-2.112-10.684-3.379-16.243-3.379-5.555 0-11.115 1.267-16.243 3.379s-9.83 5.069-14.106 9.293l-128.241 126.733c-16.671 16.478-16.671 43.089 0 59.567 16.671 16.474 43.602 16.474 60.273 0l55.142-54.498v308.384l-55.142-54.495c-16.671-16.475-43.602-16.475-60.273 0s-16.671 43.089 0 59.564l128.241 126.733c4.275 4.224 8.977 7.182 14.106 9.294s10.688 3.38 16.243 3.38c5.559 0 11.115-1.267 16.243-3.38z" />
<glyph unicode="&#xe904;" glyph-name="route" d="M896 704c0 70.4-57.6 128-128 128-55.467 0-102.4-35.84-120.32-85.333h-29.013c-23.467 0-42.667-19.2-42.667-42.667s19.2-42.667 42.667-42.667h29.013c17.493-49.493 64.427-85.333 120.32-85.333 70.4 0 128 57.6 128 128zM768 661.333c-23.467 0-42.667 19.2-42.667 42.667s19.2 42.667 42.667 42.667c23.467 0 42.667-19.2 42.667-42.667s-19.2-42.667-42.667-42.667zM430.080 490.667h-122.027c-23.467 0-42.667-19.2-42.667-42.667s19.2-42.667 42.667-42.667h122.027c23.467 0 42.667 19.2 42.667 42.667s-19.2 42.667-42.667 42.667zM827.733 407.893c-21.76-8.96-32.427-33.707-23.467-55.467 4.267-10.24 6.4-20.907 6.4-32 0-16.213-4.693-32-13.227-45.653-12.8-20.053-6.827-46.080 13.227-58.88 7.253-4.693 14.933-6.827 23.040-6.827 14.080 0 27.733 6.827 35.84 19.627 17.493 27.307 26.453 58.88 26.453 91.733 0 22.187-4.267 43.947-12.373 64.427-8.96 21.76-33.707 32.427-55.467 23.467l-0.427-0.427zM179.627 486.4c5.12 0 10.667 0.853 15.787 2.987 21.76 8.533 32.853 33.28 23.893 55.467-3.84 9.813-5.973 20.48-5.973 31.147 0 16.64 4.693 32.853 13.653 46.507 12.8 19.627 7.253 46.080-12.373 58.88s-46.080 7.253-58.88-12.373c-18.347-27.307-27.733-59.733-27.733-93.013 0-21.76 3.84-42.667 11.947-62.293 6.827-16.64 22.613-26.88 39.68-26.88v-0.427zM456.107 746.667h-122.027c-23.467 0-42.667-19.2-42.667-42.667s19.2-42.667 42.667-42.667h122.027c23.467 0 42.667 19.2 42.667 42.667s-19.2 42.667-42.667 42.667zM714.667 490.667h-122.027c-23.467 0-42.667-19.2-42.667-42.667s19.2-42.667 42.667-42.667h122.027c23.467 0 42.667 19.2 42.667 42.667s-19.2 42.667-42.667 42.667zM691.2 234.667h-122.027c-23.467 0-42.667-19.2-42.667-42.667s19.2-42.667 42.667-42.667h122.027c23.467 0 42.667 19.2 42.667 42.667s-19.2 42.667-42.667 42.667zM405.333 234.667h-29.013c-17.493 49.493-64.427 85.333-120.32 85.333-70.4 0-128-57.6-128-128s57.6-128 128-128c55.467 0 102.4 35.84 120.32 85.333h29.013c23.467 0 42.667 19.2 42.667 42.667s-19.2 42.667-42.667 42.667zM256 149.333c-23.467 0-42.667 19.2-42.667 42.667s19.2 42.667 42.667 42.667c23.467 0 42.667-19.2 42.667-42.667s-19.2-42.667-42.667-42.667z" />
<glyph unicode="&#xe905;" glyph-name="url-rewrite" d="M341.333 490.667c79.36 0 145.493 54.613 164.693 128h11.947c19.2-73.387 85.333-128 164.693-128h85.333c94.293 0 170.667 76.373 170.667 170.667s-76.373 170.667-170.667 170.667h-85.333c-79.36 0-145.493-54.613-164.693-128h-11.947c-19.2 73.387-85.333 128-164.693 128h-85.333c-94.293 0-170.667-76.373-170.667-170.667s76.373-170.667 170.667-170.667h85.333zM682.667 746.667h85.333c46.933 0 85.333-38.4 85.333-85.333s-38.4-85.333-85.333-85.333h-85.333c-31.573 0-58.453 17.493-73.387 42.667h73.387c23.467 0 42.667 19.2 42.667 42.667s-19.2 42.667-42.667 42.667h-73.387c14.933 25.173 41.813 42.667 73.387 42.667zM256 746.667h85.333c31.573 0 58.453-17.493 73.387-42.667h-73.387c-23.467 0-42.667-19.2-42.667-42.667s19.2-42.667 42.667-42.667h73.387c-14.933-25.173-41.813-42.667-73.387-42.667h-85.333c-46.933 0-85.333 38.4-85.333 85.333s38.4 85.333 85.333 85.333zM755.648 438.622c-3.84 3.84-8.533 7.253-14.080 9.387-10.24 4.267-22.187 4.267-32.427 0-5.12-2.133-9.813-5.12-14.080-9.387l-128-128c-16.64-16.64-16.64-43.52 0-60.16s43.52-16.64 60.16 0l55.040 55.040v-198.827c0-23.467 19.2-42.667 42.667-42.667s42.667 19.2 42.667 42.667v198.827l55.040-55.040c8.533-8.533 19.2-12.373 30.293-12.373s21.76 4.267 30.293 12.373c16.64 16.64 16.64 43.52 0 60.16l-128 128h0.427zM456.964 204.365l-128.001-128h0.853c-4.267-4.267-8.96-7.253-14.080-9.387s-10.667-3.413-16.213-3.413c-5.547 0-11.093 1.28-16.213 3.413-5.547 2.133-10.24 5.547-14.080 9.387l-128 128c-16.64 16.64-16.64 43.52 0 60.16s43.52 16.64 60.16 0l55.040-55.040v198.827c0 23.467 19.2 42.667 42.667 42.667s42.667-19.2 42.667-42.667v-198.827l55.040 55.040c16.64 16.64 43.521 16.64 60.161 0s16.64-43.52 0-60.16zM469.333 64c23.565 0 42.667 19.102 42.667 42.667s-19.102 42.667-42.667 42.667c-23.565 0-42.667-19.102-42.667-42.667s19.102-42.667 42.667-42.667zM640 106.667c0-23.565-19.102-42.667-42.667-42.667s-42.667 19.102-42.667 42.667c0 23.565 19.102 42.667 42.667 42.667s42.667-19.102 42.667-42.667z" />
<glyph unicode="&#xe907;" glyph-name="coefficient" d="M450.739 490.479c35.614 0 64.486 28.668 64.486 64.034s-28.873 64.035-64.486 64.035c-35.612 0-64.482-28.67-64.482-64.035s28.87-64.034 64.482-64.034zM608.512 599.337l-171.959-256.144c-13.325-19.635-7.735-46.106 12.041-59.337 7.305-4.698 15.475-7.258 23.642-7.258 13.756 0 27.511 6.831 35.682 19.209l171.955 256.143c13.329 19.638 7.74 46.106-12.036 59.34s-46.43 7.684-59.755-11.953h0.431zM665.685 277.026c35.614 0 64.482 28.668 64.482 64.034s-28.868 64.034-64.482 64.034c-35.614 0-64.482-28.668-64.482-64.034s28.868-64.034 64.482-64.034zM552.196 832c-104.896 0-202.91-40.983-276.421-115.264-16.766-16.649-16.336-43.971 0.43-60.193s44.279-16.223 60.615 0.427c57.175 57.632 133.265 89.65 214.946 89.65 165.939 0 300.924-134.048 300.924-298.833 0-164.783-134.985-298.833-300.924-298.833-79.1 0-153.901 30.31-210.647 85.38-17.196 16.649-44.279 16.222-60.614-0.427-16.766-16.649-16.336-43.972 0.43-60.194 72.652-70.865 168.948-109.713 270.832-109.713 213.227 0 386.901 172.467 386.901 384.213 0 211.744-173.248 383.787-386.47 383.787zM300.279 405.094c23.644 0 42.989 19.213 42.989 42.692s-19.345 42.692-42.989 42.692h-42.989v42.688c0 23.48-19.345 42.691-42.989 42.691s-42.989-19.211-42.989-42.691v-42.688h-42.989c-23.644 0-42.989-19.213-42.989-42.692s19.345-42.692 42.989-42.692h42.989v-42.688c0-23.479 19.345-42.692 42.989-42.692s42.989 19.213 42.989 42.692v42.688h42.989z" />
<glyph unicode="&#xe909;" glyph-name="point-download" d="M528.67 238.046c5.559 2.112 10.261 5.491 14.11 9.293h-0.858l128.243 126.733c16.67 16.478 16.67 43.089 0 59.567-16.674 16.474-43.605 16.474-60.275 0l-55.142-54.498v410.615c0 23.235-19.238 42.244-42.748 42.244s-42.748-19.010-42.748-42.244v-410.615l-55.142 54.498c-16.671 16.474-43.602 16.474-60.273 0-16.671-16.478-16.671-43.089 0-59.567l128.241-126.733c4.275-4.224 8.977-7.181 14.106-9.293s10.688-3.379 16.243-3.379c5.559 0 11.115 1.267 16.243 3.379zM313.277 205.231c22.139 8.068 33.546 32.559 25.477 54.699s-32.558 33.545-54.697 25.476c-29.067-10.594-55.574-24.162-75.612-41.327-19.884-17.037-37.777-41.685-37.777-73.412 0-32.158 18.367-57.024 38.611-74.121 20.442-17.259 47.492-30.882 77.183-41.485 59.754-21.342 139.498-33.728 225.539-33.728s165.786 12.386 225.54 33.728c29.692 10.603 56.742 24.226 77.184 41.485 20.241 17.097 38.609 41.963 38.609 74.121 0 31.727-17.894 56.375-37.777 73.412-20.036 17.165-46.545 30.733-75.614 41.327-22.14 8.068-46.626-3.337-54.694-25.476-8.073-22.14 3.337-46.63 25.476-54.699 23.718-8.644 39.876-17.873 49.31-25.954 5.052-4.331 6.993-7.228 7.697-8.61-0.721-1.412-2.735-4.42-8.060-8.922-9.788-8.26-26.475-17.621-50.833-26.321-48.341-17.267-117.931-28.757-196.838-28.757s-148.497 11.49-196.839 28.757c-24.357 8.7-41.046 18.061-50.831 26.321-5.328 4.501-7.342 7.509-8.061 8.922 0.704 1.382 2.644 4.279 7.696 8.61 9.432 8.081 25.591 17.31 49.311 25.954zM768.051 169.933c0.021-0.137 0.047-0.205 0.051-0.205 0.004 0.004 0 0.026-0.009 0.068-0.009 0.034-0.021 0.081-0.043 0.137z" />
<glyph unicode="&#xe90a;" glyph-name="point-upload" d="M338.754 259.93c8.069-22.14-3.337-46.63-25.477-54.699-23.72-8.644-39.879-17.873-49.311-25.954-5.053-4.331-6.992-7.228-7.696-8.61 0.719-1.412 2.733-4.42 8.061-8.922 9.785-8.26 26.474-17.621 50.831-26.321 48.342-17.267 117.931-28.757 196.839-28.757s148.497 11.49 196.838 28.757c24.358 8.7 41.045 18.061 50.833 26.321 5.325 4.501 7.339 7.509 8.060 8.922-0.704 1.382-2.645 4.279-7.697 8.61-9.434 8.081-25.591 17.31-49.31 25.954-22.14 8.068-33.549 32.559-25.476 54.699 8.068 22.14 32.555 33.545 54.694 25.476 29.069-10.594 55.578-24.162 75.614-41.327 19.883-17.037 37.777-41.685 37.777-73.412 0-32.158-18.368-57.024-38.609-74.121-20.442-17.259-47.492-30.882-77.184-41.485-59.755-21.342-139.499-33.728-225.54-33.728s-165.786 12.386-225.539 33.728c-29.691 10.603-56.741 24.226-77.183 41.485-20.244 17.097-38.611 41.963-38.611 74.121 0 31.727 17.894 56.375 37.777 73.412 20.038 17.165 46.545 30.733 75.612 41.327 22.14 8.068 46.629-3.337 54.697-25.476zM542.78 819.327c-3.849 3.802-8.55 7.182-14.11 9.294-5.129 2.112-10.684 3.38-16.243 3.38-5.555 0-11.115-1.267-16.243-3.38s-9.83-5.069-14.106-9.294l-128.241-126.733c-16.671-16.475-16.671-43.089 0-59.564s43.602-16.475 60.273 0l55.142 54.495v-453.28c0-23.236 19.238-42.244 42.748-42.244s42.748 19.008 42.748 42.244v453.28l55.142-54.495c16.67-16.475 43.601-16.475 60.275 0 16.67 16.475 16.67 43.089 0 59.564l-128.243 126.733h0.858z" />
<glyph unicode="&#xe90b;" glyph-name="phone" d="M845.653 338.185c-10.24 22.613-29.867 39.68-55.040 48.213-39.253 13.227-78.507 26.027-117.76 38.4-52.48 16.213-87.467 2.987-117.333-43.52l-4.693-7.68-113.067 113.067 7.253 4.693c46.933 29.867 59.733 64.855 43.52 117.335-12.373 39.253-25.173 78.507-38.4 117.76-8.533 25.173-25.6 44.8-47.787 55.040-22.613 10.24-49.067 10.667-73.813 0-41.387-17.067-79.36-41.813-116.48-76.8-27.307-25.6-41.387-55.893-41.387-90.453 0-20.907 2.987-38.827 7.253-58.88 38.827-177.495 229.973-402.348 442.453-441.175l5.547-0.853c17.067-2.987 32.853-5.973 52.053-5.973 34.56 0 64.853 14.080 90.88 41.387 34.56 37.12 59.733 75.52 76.373 116.48 10.667 24.32 10.667 50.347 0.427 72.96zM766.72 296.798c-12.8-31.573-32.427-61.013-60.16-90.453-11.947-12.8-21.333-14.507-28.587-14.507-11.093 0-21.76 2.133-36.267 4.693l-5.973 1.28c-174.080 32-341.333 224.427-374.613 375.468-2.987 15.787-5.12 27.733-5.12 40.96 0 6.827 1.707 16.213 14.507 28.587 29.44 27.733 58.88 47.36 90.453 60.16 2.56 0.427 4.267 0.853 5.12 0.853 0.427 0 0.853 0 0.853 0 0.427 0 1.28-1.28 2.56-4.693 12.8-38.4 25.6-77.227 37.973-115.627 2.133-7.253 2.56-11.093 2.987-11.947-0.853-1.28-3.84-3.84-11.093-8.533l-21.333-13.653c-21.333-13.653-33.707-30.721-36.267-50.348s4.267-38.827 20.48-57.173l143.787-143.787c18.347-16.213 37.547-23.040 57.173-20.48 20.053 2.56 37.12 14.933 50.773 36.693l13.653 21.333c4.693 7.253 7.253 10.24 7.253 11.093 1.707 0 5.547-0.427 12.8-2.987 38.827-11.947 77.227-24.747 115.627-37.547 3.413-1.28 4.267-2.133 4.693-2.56 0-0.853 0.427-2.987-1.28-6.827z" />
<glyph unicode="&#xe90c;" glyph-name="leavings" d="M909.658 445.867l-128 42.667c-2.133 0.853-4.693 0.427-6.827 0.853-2.133 0-4.267 1.28-6.827 1.28h-25.6l91.307 145.067c37.547 59.733 19.627 139.093-40.107 176.64-29.013 18.347-63.147 23.893-96.427 16.64-33.28-7.68-61.867-27.733-79.787-56.747l-81.92-130.133-7.68 22.613c15.787 6.4 27.307 21.333 27.307 39.68 0 23.467-19.2 42.667-42.667 42.667h-170.666c-23.467 0-42.667-19.2-42.667-42.667 0-17.92 11.52-33.28 27.307-39.68l-11.947-35.413c-10.24-30.293-15.36-62.293-15.36-94.293v-43.947h-42.667c-2.56 0-4.267-0.853-6.827-1.28-2.133 0-4.693 0-6.827-0.853l-128-42.667c-22.187-7.253-34.56-31.573-26.88-54.187 5.973-17.92 22.613-29.013 40.533-29.013 4.267 0 8.96 0.853 13.653 2.133l71.68 23.893v-282.027c0-23.467 19.2-42.667 42.667-42.667h511.999c23.467 0 42.667 19.2 42.667 42.667v282.027l71.68-23.893c4.693-1.707 8.96-2.133 13.653-2.133 17.92 0 34.56 11.52 40.533 29.013 7.253 22.187-4.693 46.507-26.88 54.187l-0.427-0.427zM689.498 726.614c5.973 9.813 15.36 16.213 26.453 18.773s22.613 0.427 32-5.547c20.053-12.373 26.027-38.827 13.227-58.88l-119.893-190.72h-90.027l0.853 19.2c0 0 0.427 0.427 0.853 0.853l136.107 216.32h0.427zM384.432 534.187c0 23.040 3.84 45.653 11.093 67.413l19.627 59.307h23.892l18.347-54.613c8.107-24.32 11.52-49.493 10.667-75.52l-1.707-40.533h-82.346v43.947h0.427zM725.764 148.907h-427.092v256h426.666v-256h0.427z" />
<glyph unicode="&#xe90e;" glyph-name="role" d="M798.507 773.173l-256 96c-19.2 7.253-40.533 7.253-59.733 0l-256.427-96c-33.28-12.373-55.467-44.373-55.467-79.787v-210.349c0-107.947 32-206.507 96.427-294.827 58.88-81.067 132.267-135.68 220.16-162.987 15.787-5.12 33.28-5.12 49.067 0 87.893 27.733 161.28 81.92 220.16 162.987 64.427 88.747 96.427 186.88 96.427 294.827v210.349c0 35.413-22.187 67.413-55.467 79.787h0.853zM768.64 483.038c0-86.187-24.32-164.267-72.533-234.667s-109.653-117.333-183.467-140.8c-73.813 23.467-135.253 70.4-183.467 140.8s-72.533 148.48-72.533 234.667v210.775l256 96 256-96v-210.775zM384.213 576.053c0-70.402 57.6-128.002 128-128.002s128 57.6 128 128.002c0 70.4-57.6 128-128 128s-128-57.6-128-128zM554.88 576.053c0-23.467-19.2-42.667-42.667-42.667s-42.667 19.2-42.667 42.667c0 23.467 19.2 42.667 42.667 42.667s42.667-19.2 42.667-42.667zM359.893 354.185c-18.773-14.080-22.613-40.96-8.533-59.733s40.96-22.613 59.733-8.533c60.16 44.8 143.787 44.8 203.52-0.853 7.68-5.973 16.64-8.533 25.6-8.533 12.8 0 25.6 5.973 34.133 17.067 14.080 18.773 10.667 45.653-8.107 59.733-89.6 67.84-216.32 68.267-306.347 0.853z" />
<glyph unicode="&#xe90f;" glyph-name="refresh-change" d="M584.802 264.439c-16.649 16.666-43.546 16.666-60.198 0-16.649-16.661-16.649-43.58 0-60.241l12.382-12.39h-25.19c-141.313 0-256.158 114.931-256.158 256.354 0 38.451 8.112 75.196 24.762 109.804 10.246 21.363 0.854 46.998-20.066 56.825-21.347 10.254-46.963 0.855-56.782-20.081-21.774-46.144-32.874-95.28-32.874-146.548 0-188.42 153.269-341.807 341.549-341.807h25.186l-12.382-12.39c-16.649-16.661-16.649-43.58 0-60.241 8.542-8.546 19.213-12.39 30.315-12.39 11.098 0 21.773 4.271 30.31 12.39l85.389 85.453c16.649 16.661 16.649 43.58 0 60.241l-85.389 85.453-0.853-0.431zM511.795 789.539h-25.186l12.382 12.39c16.649 16.663 16.649 43.58 0 60.243-16.653 16.663-43.55 16.663-60.198 0l-85.388-85.451c-16.65-16.663-16.65-43.58 0-60.243l85.388-85.451c8.538-8.545 19.213-12.39 30.31-12.39 11.102 0 21.773 4.273 30.315 12.39 16.649 16.663 16.649 43.58 0 60.243l-12.382 12.39h25.19c141.312 0 256.158-114.932 256.158-256.352 0-38.455-8.111-75.2-24.764-109.807-10.244-21.363-0.853-46.997 20.066-56.823 5.978-2.991 11.955-4.275 18.359-4.275 15.795 0 31.168 8.973 38.426 24.354 21.773 46.144 32.875 95.279 32.875 146.551 0 188.418-153.271 341.803-341.551 341.803v0.427z" />
<glyph unicode="&#xe910;" glyph-name="picking" d="M794.453 533.333h58.88c23.467 0 42.667-19.2 42.667-42.667s-19.2-42.667-42.667-42.667h-4.267l-38.4-346.027c-2.133-21.76-20.48-37.973-42.24-37.973h-511.999c-21.76 0-39.68 16.213-42.24 37.973l-38.4 346.027h-4.267c-23.467 0-42.667 19.2-42.667 42.667s19.2 42.667 42.667 42.667h58.88l-54.613 108.8c-10.24 20.907-1.707 46.507 19.2 57.173 20.907 10.24 46.507 1.707 57.173-19.2l73.387-147.2h16.213v86.613c0 32 5.12 64 15.36 94.293l11.947 35.413c-15.787 6.4-27.307 21.76-27.307 39.68 0 23.467 19.2 42.667 42.667 42.667h255.999c23.467 0 42.667-19.2 42.667-42.667 0-18.347-11.52-33.28-27.307-39.68l10.24-30.72c11.093-34.133 16.213-69.547 14.933-105.387l-2.987-79.36v-0.853h21.333l73.387 147.2c10.667 21.333 36.267 29.867 57.173 19.2 21.333-10.667 29.867-36.267 19.2-57.173l-54.613-108.8zM437.76 687.36c-7.253-21.76-11.093-44.373-11.093-67.413v-86.613h166.827c-0.427 1.28-0.853 3.84-0.853 3.84l2.987 79.36c0.853 26.027-2.56 51.2-10.667 75.52l-18.347 54.613h-109.227l-19.627-59.307zM294.401 149.333h435.626l33.28 298.667h-502.186l33.28-298.667zM469.333 362.667c0 23.467 19.2 42.667 42.667 42.667s42.667-19.2 42.667-42.667v-128c0-23.467-19.2-42.667-42.667-42.667s-42.667 19.2-42.667 42.667v128zM384 405.333c-23.467 0-42.667-19.2-42.667-42.667v-128c0-23.467 19.2-42.667 42.667-42.667s42.667 19.2 42.667 42.667v128c0 23.467-19.2 42.667-42.667 42.667zM597.333 362.667c0 23.467 19.2 42.667 42.667 42.667s42.667-19.2 42.667-42.667v-128c0-23.467-19.2-42.667-42.667-42.667s-42.667 19.2-42.667 42.667v128z" />
<glyph unicode="&#xe911;" glyph-name="setting" d="M426.666 64h170.667c18.347 0 34.56 11.947 40.107 29.44l29.013 87.040 89.6-18.347c18.347-3.84 36.693 4.693 45.653 20.48l85.333 147.627c8.96 15.787 7.253 35.84-5.12 49.493l-60.587 68.267 61.013 68.693c12.373 13.653 14.080 33.707 5.12 49.493l-85.333 147.627c-9.387 15.787-27.307 24.32-45.653 20.48l-89.6-18.347-29.013 87.040c-5.973 17.067-22.187 29.013-40.533 29.013h-170.667c-18.347 0-34.56-11.947-40.533-29.013l-29.013-87.040-89.6 18.347c-17.92 3.84-36.267-4.267-45.653-20.907l-85.333-147.627c-8.96-15.787-7.253-35.84 5.12-49.493l60.587-68.267-60.587-68.693c-12.373-13.653-14.080-33.707-5.12-49.493l85.333-147.627c9.387-15.787 27.733-24.32 45.653-20.48l89.6 18.347 29.013-87.040c5.973-17.067 22.187-29.013 40.533-29.013zM566.613 149.333h-109.227l-31.147 93.013c-6.827 20.48-28.16 32.427-49.067 28.16l-96.427-19.627-54.613 94.72 65.28 73.813c14.507 16.213 14.507 40.533 0 56.747l-65.28 73.813 54.613 94.72 96.427-20.053c20.907-4.267 42.24 8.107 49.067 28.587l31.147 93.44h109.227l31.147-93.013c6.827-20.48 27.733-32.427 49.067-28.16l96.427 19.627 54.613-94.72-65.28-73.813c-14.507-16.213-14.507-40.533 0-56.747l65.28-73.813-54.613-94.72-96.427 19.627c-21.333 4.693-42.24-7.68-49.067-28.16l-31.147-93.44zM383.992 448c0-70.4 57.599-128 127.999-128s128 57.6 128 128c0 70.4-57.6 128-128 128s-127.999-57.6-127.999-128zM469.325 448c0 23.467 19.2 42.667 42.667 42.667s42.667-19.2 42.667-42.667c0-23.467-19.2-42.667-42.667-42.667s-42.667 19.2-42.667 42.667z" />
<glyph unicode="&#xe912;" glyph-name="email" d="M682.667 151.893c0 23.467-18.773 42.24-42.24 42.24h-48.64c-101.547 0-161.707 1.28-183.467 4.267-22.187 2.987-44.8 12.8-68.267 29.013-52.907 37.547-79.787 93.867-79.787 167.253 0 73.813 25.6 141.653 76.373 201.387 60.587 72.533 139.52 109.227 234.24 109.227 58.027 0 105.387-14.507 140.373-43.52 35.413-29.44 53.333-68.693 53.333-117.76 0-46.933-9.813-88.747-29.013-123.733-19.627-36.267-43.52-54.613-70.4-54.613h-35.84l71.68 176.64c4.693 10.667 6.827 20.053 6.827 28.16 0 11.093-3.84 20.053-11.947 27.733s-17.92 11.52-29.867 11.52c-22.613 0-40.533-10.24-55.040-31.573l-3.413-5.12-3.413 5.12c-17.067 25.173-43.093 37.547-80.213 37.547-48.213 0-92.16-22.187-130.133-66.133-38.4-43.947-58.027-94.293-58.027-150.187 0-36.693 9.813-66.56 29.013-89.173 19.2-22.187 44.373-33.707 75.947-33.707h50.773c19.627 0 40.533 9.813 62.293 29.013l4.267 3.84 2.133-5.12c8.107-18.773 23.893-27.733 48.213-27.733h49.493c49.92 0 95.573 27.733 135.253 82.773 39.68 55.467 60.16 119.040 60.16 189.013 0 70.827-26.453 129.28-78.933 173.653-52.48 44.8-122.027 67.413-206.080 67.413-58.027 0-113.92-11.947-165.973-35.84s-97.28-57.6-134.4-101.12c-29.867-35.413-54.187-76.373-71.253-122.027-17.493-45.653-26.027-91.307-26.027-135.253 0-49.493 10.667-95.573 31.573-136.96s51.2-75.52 90.027-101.547c45.653-31.147 114.773-46.933 205.653-46.933h142.507c23.467 0 42.24 18.773 42.24 42.24zM568.32 473.173l-31.147-76.8c-8.96-21.76-26.88-32.853-52.907-32.853h-11.093c-18.773 0-40.96 8.533-40.96 50.347 0 27.733 10.667 55.040 31.573 81.067 21.333 26.453 43.52 39.68 66.56 39.68 11.52 0 22.187-3.413 30.72-9.813 8.96-6.827 13.653-14.933 13.653-24.747 0.427-7.253-1.707-16.213-6.4-26.88z" />
<glyph unicode="&#xe914;" glyph-name="storefront" d="M888.32 662.613l-25.6 70.827c-12.373 33.28-44.8 55.893-80.213 55.893h-541.013c-35.413 0-67.84-22.613-80.213-56.32l-25.6-70.4c-11.52-32.427-10.24-66.987 4.267-98.133 7.68-15.787 17.92-29.867 30.72-40.96 11.947-10.667 26.027-19.2 41.387-25.173 14.080-5.12 29.013-7.68 43.947-7.68 32.427 0 62.72 11.947 85.333 32.853 22.613-20.48 52.907-32.853 85.333-32.853s62.72 12.373 85.333 32.853c22.613-20.48 52.907-32.853 85.333-32.853s62.72 12.373 85.333 32.853c22.613-20.907 52.907-32.853 85.333-32.853 14.933 0 29.867 2.56 43.947 7.68 15.36 5.973 29.44 14.507 41.387 25.173 12.8 11.093 23.040 25.173 30.72 40.96 14.507 31.147 15.787 65.707 4.267 98.133zM298.667 616.96c0-4.267-0.853-8.533-2.56-12.8-3.84-10.667-11.52-19.2-22.187-24.32-10.24-4.693-21.76-5.12-32.427-1.28s-19.2 11.947-24.32 22.187c-4.693 10.24-5.12 21.76-1.28 32.427l25.6 70.827h57.173v-87.040zM469.333 618.667c0-23.467-19.2-42.667-42.667-42.667-11.093 0-22.187 4.267-30.293 12.373-7.68 8.107-12.373 18.773-12.373 30.293v85.333h85.333v-85.333zM640 618.667v-1.707c-0.853-22.613-19.627-40.96-42.667-40.96s-42.667 19.2-42.667 42.667v85.333h85.333v-85.333zM806.827 600.747c-5.12-10.24-13.653-18.347-24.32-22.187s-22.187-3.413-32.427 1.28c-10.667 5.12-18.347 13.653-22.187 24.32-1.707 4.693-2.56 9.387-2.56 14.507v85.333h57.173l25.6-70.827c3.84-10.667 3.413-22.187-1.28-32.427zM853.333 471.040v-279.040c0-46.933-38.4-85.333-85.333-85.333h-128c-23.467 0-42.667 19.2-42.667 42.667v213.333h-170.667v-213.333c0-23.467-19.2-42.667-42.667-42.667h-128c-46.933 0-85.333 38.4-85.333 85.333v279.040c8.533-4.693 17.067-9.387 26.453-12.8 19.2-6.827 38.827-10.24 58.88-10.24 30.72 0 60.16 8.107 85.333 23.040 25.6-14.933 55.040-23.040 85.333-23.040s59.733 8.107 85.333 23.040c25.6-14.933 55.040-23.040 85.333-23.040s59.307 8.107 85.333 23.040c25.6-14.933 55.040-23.040 85.333-23.040 20.053 0 39.68 3.413 58.453 10.24 9.387 3.413 18.347 8.107 26.88 12.8z" />
<glyph unicode="&#xe915;" glyph-name="share-branches" d="M764.463 322.829c-33.946 0-63.646-12.727-89.105-33.946l-292.772 144.265c0 8.486 0 12.732 0 16.973 0 4.245 0 8.486 0 16.973l297.018 148.509c21.214-25.459 50.914-38.188 84.86-38.188 72.132 0 127.296 55.16 127.296 127.293s-55.164 127.293-127.296 127.293c-72.132 0-127.292-55.16-127.292-127.293 0-4.243 0-8.486 0-16.972l-297.016-148.508c-21.216 25.459-50.917 38.188-84.862 38.188-72.133 0-127.293-55.162-127.293-127.294s55.16-127.292 127.293-127.292c33.945 0 63.646 12.727 89.105 33.946l297.015-148.51c0-4.241 0-8.486 0-16.973 0-72.132 55.164-127.292 127.296-127.292s127.292 55.159 127.292 127.292c0 72.132-59.405 131.537-131.537 131.537zM764.463 747.138c25.459 0 42.432-16.972 42.432-42.431s-16.973-42.431-42.432-42.431c-25.459 0-42.428 16.972-42.428 42.431s16.969 42.431 42.428 42.431zM255.293 407.689c-25.459 0-42.431 16.973-42.431 42.432s16.972 42.432 42.431 42.432c25.458 0 42.431-16.973 42.431-42.432s-16.972-42.432-42.431-42.432zM764.463 153.105c-25.459 0-42.428 16.973-42.428 42.432s16.969 42.428 42.428 42.428c25.459 0 42.432-16.969 42.432-42.428s-16.973-42.432-42.432-42.432z" />
<glyph unicode="&#xe918;" glyph-name="transfert" d="M554.667 874.667h341.333c23.467 0 42.667-19.2 42.667-42.667v-298.667c0-23.467-19.2-42.667-42.667-42.667h-341.333c-23.467 0-42.667 19.2-42.667 42.667v298.667c0 23.467 19.2 42.667 42.667 42.667zM597.333 789.333v-213.333h256v213.333h-85.333v-85.333c0-23.467-19.2-42.667-42.667-42.667s-42.667 19.2-42.667 42.667v85.333h-85.333zM128 405.333h341.333c23.467 0 42.667-19.2 42.667-42.667v-298.667c0-23.467-19.2-42.667-42.667-42.667h-341.333c-23.467 0-42.667 19.2-42.667 42.667v298.667c0 23.467 19.2 42.667 42.667 42.667zM170.667 320v-213.333h256v213.333h-85.333v-85.333c0-23.467-19.2-42.667-42.667-42.667s-42.667 19.2-42.667 42.667v85.333h-85.333zM755.631 395.947c-3.84 3.84-8.533 7.253-14.080 9.387-10.24 4.267-22.187 4.267-32.427 0-5.12-2.133-9.813-5.12-14.080-9.387l-128-128c-16.64-16.64-16.64-43.52 0-60.16s43.52-16.64 60.16 0l55.040 55.040v-198.827c0-23.467 19.2-42.667 42.667-42.667s42.667 19.2 42.667 42.667v198.827l55.040-55.040c8.533-8.533 19.2-12.373 30.293-12.373s21.76 4.267 30.293 12.373c16.64 16.64 16.64 43.52 0 60.16l-128 128h0.427zM282.457 490.667c-5.547 2.133-10.24 5.547-14.080 9.387h0.853l-128 128c-16.64 16.64-16.64 43.52 0 60.16s43.52 16.64 60.16 0l55.040-55.040v198.827c0 23.467 19.2 42.667 42.667 42.667s42.667-19.2 42.667-42.667v-198.827l55.040 55.040c16.64 16.64 43.521 16.64 60.161 0s16.64-43.52 0-60.16l-128.001-128c-4.267-4.267-8.96-7.253-14.080-9.387s-10.667-3.413-16.213-3.413c-5.547 0-11.093 1.28-16.213 3.413z" />
<glyph unicode="&#xe91a;" glyph-name="zoom-out" d="M426.667 789.334v-213.333c0-23.467-19.2-42.667-42.667-42.667h-213.333c-23.467 0-42.667 19.2-42.667 42.667s19.2 42.667 42.667 42.667h110.507l-140.373 140.373c-16.64 16.64-16.64 43.52 0 60.16s43.52 16.64 60.16 0l140.373-140.373v110.507c0 23.467 19.2 42.667 42.667 42.667s42.667-19.2 42.667-42.667zM883.627 819.627c-16.64 16.64-43.52 16.64-60.16 0l-140.373-140.373v110.507c0 23.467-19.2 42.667-42.667 42.667s-42.667-19.2-42.667-42.667v-213.333c0-23.467 19.2-42.667 42.667-42.667h213.333c23.467 0 42.667 19.2 42.667 42.667s-19.2 42.667-42.667 42.667h-110.507l140.373 140.373c16.64 16.64 16.64 43.52 0 60.16zM384 362.667h-213.333c-23.467 0-42.667-19.2-42.667-42.667s19.2-42.667 42.667-42.667h110.507l-140.373-140.373c-16.64-16.64-16.64-43.52 0-60.16 8.533-8.533 19.2-12.373 30.293-12.373s21.76 4.267 30.293 12.373l140.373 140.373v-110.507c0-23.467 19.2-42.667 42.667-42.667s42.667 19.2 42.667 42.667v213.333c0 23.467-19.2 42.667-42.667 42.667h-0.427zM896 320c0 23.467-19.2 42.667-42.667 42.667h-213.333c-23.467 0-42.667-19.2-42.667-42.667v-213.333c0-23.467 19.2-42.667 42.667-42.667s42.667 19.2 42.667 42.667v110.507l140.373-140.373c8.533-8.533 19.2-12.373 30.293-12.373s21.76 4.267 30.293 12.373c16.64 16.64 16.64 43.52 0 60.16l-140.373 140.373h110.507c23.467 0 42.667 19.2 42.667 42.667h-0.427z" />
<glyph unicode="&#xe91b;" glyph-name="zoom-in" d="M384 746.667h-110.507l140.373-140.373c16.64-16.64 16.64-43.52 0-60.16-8.533-8.533-19.2-12.373-30.293-12.373s-21.76 4.267-30.293 12.373l-140.373 140.373v-110.507c0-23.467-19.2-42.667-42.667-42.667s-42.667 19.2-42.667 42.667v213.333c0 23.467 19.2 42.667 42.667 42.667h213.333c23.467 0 42.667-19.2 42.667-42.667s-19.2-42.667-42.667-42.667h0.427zM853.333 832h-213.333c-23.467 0-42.667-19.2-42.667-42.667s19.2-42.667 42.667-42.667h110.507l-140.373-140.373c-16.64-16.64-16.64-43.52 0-60.16 8.533-8.533 19.2-12.373 30.293-12.373s21.76 4.267 30.293 12.373l140.373 140.373v-110.507c0-23.467 19.2-42.667 42.667-42.667s42.667 19.2 42.667 42.667v213.333c0 23.467-19.2 42.667-42.667 42.667h-0.427zM414.293 350.293c-16.64 16.64-43.52 16.64-60.16 0l-140.373-140.373v110.507c0 23.467-19.2 42.667-42.667 42.667s-42.667-19.2-42.667-42.667v-213.333c0-23.467 19.2-42.667 42.667-42.667h213.333c23.467 0 42.667 19.2 42.667 42.667s-19.2 42.667-42.667 42.667h-110.507l140.373 140.373c16.64 16.64 16.64 43.52 0 60.16zM853.333 362.667c-23.467 0-42.667-19.2-42.667-42.667v-110.507l-140.373 140.373c-16.64 16.64-43.52 16.64-60.16 0s-16.64-43.52 0-60.16l140.373-140.373h-110.507c-23.467 0-42.667-19.2-42.667-42.667s19.2-42.667 42.667-42.667h213.333c23.467 0 42.667 19.2 42.667 42.667v213.333c0 23.467-19.2 42.667-42.667 42.667z" />
<glyph unicode="&#xe91c;" glyph-name="roles" d="M381.015 507.733c32.853 43.52 80.638 68.267 130.985 68.267s98.56-24.747 130.987-68.267c8.533-11.093 21.333-17.067 34.133-17.067 8.96 0 17.92 2.987 25.6 8.533 18.773 14.080 22.613 40.96 8.533 59.733-31.573 41.813-72.96 72.107-119.467 88.32 29.013 23.467 48.213 58.88 48.213 99.413 0 70.4-57.6 128-128 128s-127.998-57.6-127.998-128c0-40.107 19.2-75.52 48.212-99.413-46.078-16.213-87.892-46.507-119.465-88.32-14.080-18.773-10.24-45.653 8.533-59.733s45.653-10.24 59.733 8.533zM512 789.333c23.467 0 42.667-19.2 42.667-42.667s-19.2-42.667-42.667-42.667c-23.467 0-42.667 19.2-42.667 42.667s19.2 42.667 42.667 42.667zM810.667 277.333c0-23.467 19.2-42.667 42.667-42.667s42.667 19.2 42.667 42.667c0 94.293-76.373 170.667-170.667 170.667h-426.667c-94.293 0-170.667-76.373-170.667-170.667 0-23.467 19.2-42.667 42.667-42.667s42.667 19.2 42.667 42.667c0 46.933 38.4 85.333 85.333 85.333h170.667v-85.333c0-23.467 19.2-42.667 42.667-42.667s42.667 19.2 42.667 42.667v85.333h170.667c46.933 0 85.333-38.4 85.333-85.333zM597.333 106.667c0-47.13-38.204-85.333-85.333-85.333s-85.333 38.204-85.333 85.333c0 47.13 38.204 85.333 85.333 85.333s85.333-38.204 85.333-85.333zM170.667 21.333c47.128 0 85.333 38.204 85.333 85.333s-38.205 85.333-85.333 85.333c-47.128 0-85.333-38.204-85.333-85.333s38.205-85.333 85.333-85.333zM938.667 106.667c0-47.13-38.204-85.333-85.333-85.333s-85.333 38.204-85.333 85.333c0 47.13 38.204 85.333 85.333 85.333s85.333-38.204 85.333-85.333z" />
<glyph unicode="&#xe91e;" glyph-name="link" d="M512 749.699l-90.508-90.51c-16.593-16.593-16.593-43.746 0-60.34 16.592-16.593 43.745-16.593 60.338 0l90.509 90.51c49.783 49.78 131.243 49.78 181.022 0s49.779-131.239 0-181.020l-90.509-90.509c-16.593-16.593-16.593-43.746 0-60.339s43.746-16.593 60.339 0l90.509 90.509c83.268 83.268 83.268 218.431 0 301.699s-218.432 83.269-301.7 0zM391.323 327.322c16.593-16.593 43.745-16.593 60.338 0l181.022 181.018c16.593 16.593 16.593 43.747 0 60.34s-43.746 16.593-60.343 0l-181.016-181.019c-16.593-16.593-16.593-43.746 0-60.339zM542.17 297.152l-90.509-90.513c-49.779-49.779-131.237-49.779-181.018 0-49.78 49.783-49.78 131.243 0 181.022l90.51 90.509c16.593 16.593 16.593 43.746 0 60.34s-43.746 16.593-60.34 0l-90.51-90.51c-83.269-83.268-83.269-218.432 0-301.7s218.428-83.268 301.696 0l90.513 90.509c16.593 16.597 16.593 43.75 0 60.343-16.597 16.593-43.75 16.593-60.343 0z" />
<glyph unicode="&#xe91f;" glyph-name="users" d="M704.853 561.92c37.547 27.307 62.293 70.827 62.293 120.747 0 82.347-66.987 149.333-149.333 149.333s-149.333-66.987-149.333-149.333c0-49.92 24.747-93.867 62.72-121.173-2.56-0.853-5.547-1.28-8.107-2.56-27.307 35.84-69.973 59.307-118.614 59.307-82.347 0-149.333-66.987-149.333-149.333 0-49.92 24.747-93.44 62.293-120.747-102.827-33.28-179.2-124.16-189.44-237.653-2.133-23.467 15.36-44.373 38.827-46.507 23.040-1.707 44.373 15.36 46.507 38.827 8.96 99.413 91.307 174.507 191.147 174.507s182.188-75.093 191.148-174.507c2.133-22.187 20.48-38.827 42.667-38.827 1.28 0 2.56 0 3.84 0 23.467 2.133 40.96 23.040 38.827 46.507-10.24 113.493-86.613 204.373-189.013 238.080 37.547 27.307 62.293 70.827 62.293 120.747 0 3.413-0.853 6.827-0.853 9.813 20.907 7.68 42.667 11.52 64.853 11.52 99.84 0 182.187-75.093 191.147-174.507 2.133-22.187 20.48-38.827 42.667-38.827 1.28 0 2.56 0 3.84 0 23.467 2.133 40.96 23.040 38.827 46.507-10.24 113.493-86.613 204.373-189.013 238.080h-0.853zM404.479 533.333c35.414 0 64.001-28.587 64.001-64s-28.587-64-64.001-64c-35.413 0-64 28.587-64 64s28.587 64 64 64zM617.813 746.667c35.413 0 64-28.587 64-64s-28.587-64-64-64c-35.413 0-64 28.587-64 64s28.587 64 64 64z" />
<glyph unicode="&#xe921;" glyph-name="storefront-outline" d="M888.32 662.613l-25.6 70.827c-12.373 33.28-44.8 55.893-80.213 55.893h-541.013c-35.413 0-67.84-22.613-80.213-56.32l-25.6-70.4c-11.52-32.427-10.24-66.987 4.267-98.133 7.68-15.787 17.92-29.867 30.72-40.96v-331.52c0-46.933 38.4-85.333 85.333-85.333h170.667c23.467 0 42.667 19.2 42.667 42.667v213.333h85.333v-213.333c0-23.467 19.2-42.667 42.667-42.667h170.667c46.933 0 85.333 38.4 85.333 85.333v331.52c12.8 11.093 23.040 25.173 30.72 40.96 14.507 31.147 15.787 65.707 4.267 98.133zM640 618.667v-1.707c-0.853-22.613-19.627-40.96-42.667-40.96s-42.667 19.2-42.667 42.667v85.333h85.333v-85.333zM384 704h85.333v-85.333c0-23.467-19.2-42.667-42.667-42.667-11.093 0-22.187 4.267-30.293 12.373-7.68 8.107-12.373 18.773-12.373 30.293v85.333zM241.493 578.56c-10.667 3.84-19.2 11.947-24.32 22.187-4.693 10.24-5.12 21.76-1.28 32.427l25.6 70.827h57.173v-87.040c0-4.267-0.853-8.533-2.56-12.8-3.84-10.667-11.52-19.2-22.187-24.32-10.24-4.693-21.76-5.12-32.427-1.28zM768 192h-128v213.333c0 23.467-19.2 42.667-42.667 42.667h-170.667c-23.467 0-42.667-19.2-42.667-42.667v-213.333h-128v298.667c18.347 0 36.693 3.84 54.187 11.947 11.52 5.547 22.187 12.373 31.147 20.48 22.613-20.053 52.48-32.427 85.333-32.427s62.72 12.373 85.333 32.853c44.373-40.107 122.88-43.093 170.667-0.427 8.96-8.107 19.627-14.933 31.147-20.48 17.067-8.107 35.84-11.947 54.187-11.947v-298.667zM806.827 600.747c-5.12-10.24-13.653-18.347-24.32-22.187s-22.187-3.413-32.427 1.28c-10.667 5.12-18.347 13.653-22.187 24.32-1.707 4.693-2.56 9.387-2.56 14.507v85.333h57.173l25.6-70.827c3.84-10.667 3.413-22.187-1.28-32.427z" />
<glyph unicode="&#xe922;" glyph-name="formatting-bold" d="M650.684 456.533c20.89 12.723 38.519 30.148 51.486 50.889 12.962 20.74 20.898 44.225 23.181 68.578 0.397 22.021-3.55 43.904-11.614 64.4s-20.083 39.202-35.379 55.050c-15.292 15.849-33.562 28.529-53.756 37.317s-41.924 13.511-63.945 13.9h-276.907v-597.333h298.667c20.954 0.222 41.664 4.57 60.937 12.796 19.277 8.226 36.74 20.169 51.401 35.145 14.66 14.98 26.227 32.695 34.039 52.143s11.716 40.239 11.49 61.197v5.12c0.013 29.564-8.41 58.517-24.282 83.456-15.872 24.943-38.532 44.838-65.318 57.344zM369.083 661.333h179.2c18.185 0.563 36.105-4.449 51.358-14.364s27.106-24.257 33.975-41.103c6.95-22.519 4.702-46.873-6.251-67.74s-29.722-36.55-52.203-43.62c-8.73-2.56-17.783-3.853-26.88-3.84h-179.2v170.667zM565.35 234.667h-196.267v170.667h196.267c18.185 0.563 36.105-4.45 51.358-14.366 15.253-9.911 27.106-24.256 33.975-41.101 6.95-22.519 4.702-46.874-6.251-67.742-10.953-20.864-29.722-36.548-52.203-43.618-8.73-2.56-17.783-3.853-26.88-3.84z" />
<glyph unicode="&#xe923;" glyph-name="partners" d="M895.573 620.8c0 4.267-0.853 8.107-2.56 11.947 0 0.853-0.427 2.133-0.853 2.987 0 0 0 0.853 0 1.28-2.133 4.267-4.693 7.68-7.68 11.093-0.853 0.853-1.707 1.28-2.56 2.133-2.987 2.56-5.973 4.693-9.387 6.4-1.28 0.427-2.56 1.28-3.84 1.707-4.693 1.707-9.813 2.987-14.933 2.987h-170.667v85.333c0 46.933-38.4 85.333-85.333 85.333h-170.667c-46.933 0-85.333-38.4-85.333-85.333v-85.333h-171.093c-5.12 0-10.24-1.28-14.933-2.987-1.28-0.427-2.56-1.28-3.84-1.707-3.413-1.707-6.827-3.84-9.387-6.4-0.853-0.853-1.707-1.28-2.56-2.133-2.987-2.987-5.973-6.827-7.68-11.093 0 0 0-0.853 0-1.28-0.427-0.853-0.427-2.133-0.853-2.987-1.28-3.84-2.133-8.107-2.56-11.947 0-0.853-0.427-1.28-0.427-2.133v-512c0-23.467 19.2-42.667 42.667-42.667h682.666c23.467 0 42.667 19.2 42.667 42.667v512c0 0 0 1.28-0.427 2.133h-0.427zM426.667 746.667h170.667v-85.333h-170.667v85.333zM384 576h380.586l-102.4-128h-107.52c0 23.467-19.2 42.667-42.667 42.667s-42.667-19.2-42.667-42.667h-107.52l-102.4 128h124.587zM213.334 149.333v347.733l94.72-118.187c8.107-10.24 20.48-16.213 33.28-16.213h128c0-23.467 19.2-42.667 42.667-42.667s42.667 19.2 42.667 42.667h128c12.8 0 25.173 5.973 33.28 16.213l94.72 118.187v-347.733h-597.333z" />
<glyph unicode="&#xe927;" glyph-name="basket" d="M810.667 575.966h42.667c23.467 0 42.667-19.2 42.667-42.667s-19.2-42.667-42.667-42.667h-4.267l-38.827-346.027c-2.133-21.76-20.48-37.973-42.24-37.973h-512c-21.76 0-40.107 16.213-42.667 37.973l-38.4 346.027h-4.267c-23.467 0-42.667 19.2-42.667 42.667s19.2 42.667 42.667 42.667h103.68l115.627 192.853c11.947 20.053 38.4 26.453 58.453 14.507s26.453-38.4 14.507-58.453l-89.173-148.907h276.053l-88.747 148.48c-12.373 20.053-5.547 46.080 14.507 58.453s46.507 5.547 58.453-14.507l115.627-192.427h61.013zM261.12 490.633l33.28-298.667h435.2l33.707 298.667h-502.187zM469.333 405.299c0 23.467 19.2 42.667 42.667 42.667s42.667-19.2 42.667-42.667v-128c0-23.467-19.2-42.667-42.667-42.667s-42.667 19.2-42.667 42.667v128zM384 447.966c-23.467 0-42.667-19.2-42.667-42.667v-128c0-23.467 19.2-42.667 42.667-42.667s42.667 19.2 42.667 42.667v128c0 23.467-19.2 42.667-42.667 42.667zM597.333 405.299c0 23.467 19.2 42.667 42.667 42.667s42.667-19.2 42.667-42.667v-128c0-23.467-19.2-42.667-42.667-42.667s-42.667 19.2-42.667 42.667v128z" />
<glyph unicode="&#xe929;" glyph-name="send" d="M852.894 448c0 2.56 0 4.693-0.427 7.253 0 0.853 0 1.707 0 2.56-0.427 1.28-1.28 2.56-1.707 3.84-0.853 2.56-1.707 4.693-2.987 6.827s-2.56 3.84-3.84 5.547c-1.28 1.707-2.987 3.84-4.693 5.547s-3.84 2.987-5.547 4.267c-1.28 0.853-2.133 1.707-3.413 2.56l-597.334 298.669c-15.787 7.253-33.707 5.12-46.933-5.547-12.8-10.667-18.347-28.16-13.653-44.373l81.92-287.149-81.92-287.147c-4.693-16.213 0.853-33.707 13.653-44.373 8.107-6.4 17.493-9.813 27.307-9.813 6.4 0 13.227 1.707 19.2 4.693l597.334 298.667c1.28 0.853 2.133 1.707 3.413 2.56 2.133 1.28 3.84 2.56 5.547 4.267s3.413 3.413 4.693 5.547c1.28 1.707 2.56 3.413 3.84 5.547s2.133 4.693 2.987 6.827c0.427 1.28 1.28 2.56 1.707 3.84 0 0.853 0 1.707 0 2.56 0.853 2.133 0.853 4.267 0.853 6.827zM629.747 490.667h-299.094l-49.493 174.509 348.588-174.509zM281.16 230.827l49.493 174.507h299.094l-348.588-174.507z" />
<glyph unicode="&#xe92a;" glyph-name="camera-add" d="M512 234.667c-94.293 0-170.667 76.373-170.667 170.667s76.373 170.667 170.667 170.667c94.293 0 170.667-76.373 170.667-170.667s-76.373-170.667-170.667-170.667zM512 490.667c-46.933 0-85.333-38.4-85.333-85.333s38.4-85.333 85.333-85.333c46.933 0 85.333 38.4 85.333 85.333s-38.4 85.333-85.333 85.333zM1024 149.333c0-11.52-4.693-22.187-12.373-30.293s-18.773-12.373-30.293-12.373h-85.333v-85.333c0-11.52-4.693-22.187-12.373-30.293s-18.773-12.373-30.293-12.373c-11.52 0-22.187 4.693-30.293 12.373s-12.373 18.773-12.373 30.293v85.333h-85.333c-11.52 0-22.187 4.693-30.293 12.373s-12.373 18.773-12.373 30.293c0 11.52 4.693 22.187 12.373 30.293s18.773 12.373 30.293 12.373h85.333v85.333c0 11.52 4.693 22.187 12.373 30.293s18.773 12.373 30.293 12.373c11.52 0 22.187-4.693 30.293-12.373s12.373-18.773 12.373-30.293v-85.333h85.333c11.52 0 22.187-4.693 30.293-12.373s12.373-18.773 12.373-30.293zM810.667 704h-110.507l-72.533 72.96c-8.107 7.68-18.773 12.373-30.293 12.373h-170.667c-11.52 0-22.187-4.693-30.293-12.373l-72.533-72.96h-110.507c-46.933 0-85.333-38.4-85.333-85.333v-426.667c0-46.933 38.4-85.333 85.333-85.333h384c23.467 0 42.667 19.2 42.667 42.667s-19.2 42.667-42.667 42.667h-384v426.667h128c11.52 0 22.187 4.693 30.293 12.373l72.533 72.96h135.68l72.533-72.96c8.107-7.68 18.773-12.373 30.293-12.373h128v-213.333c0-23.467 19.2-42.667 42.667-42.667s42.667 19.2 42.667 42.667v213.333c0 46.933-38.4 85.333-85.333 85.333z" />
<glyph unicode="&#xe92b;" glyph-name="visible" d="M759.91 508.587c34.987-35.413 65.707-78.080 89.173-127.573 5.547-11.52 5.547-25.173 0-36.693-69.12-146.347-198.4-237.653-337.067-237.653-138.665 0-267.945 91.307-337.065 238.080-5.547 11.52-5.547 24.747 0 36.267 23.467 49.493 54.187 92.16 89.173 127.147 0 0.427-0.427 0.853-0.853 1.28l-85.333 128c-12.8 19.627-7.68 46.080 11.947 59.307s46.080 7.68 58.88-11.947l81.493-122.027c43.093 27.733 90.027 45.653 139.092 52.48v131.413c0 23.467 19.2 42.667 42.667 42.667s42.667-19.2 42.667-42.667v-131.413c49.067-6.827 96-24.747 138.667-52.48l81.493 122.453c13.227 19.627 39.68 25.173 59.307 11.947s25.173-39.68 11.947-59.307l-85.333-128c0-0.427-0.427-0.853-0.853-1.28zM261.138 362.667c56.32-105.813 151.040-170.667 250.879-170.667 99.84 0 194.56 64.853 250.88 170.667-56.32 105.813-151.040 170.667-250.88 170.667-99.839 0-194.559-64.853-250.879-170.667zM640 362.667c0-70.694-57.306-128-128-128s-128 57.306-128 128c0 70.694 57.306 128 128 128s128-57.306 128-128z" />
<glyph unicode="&#xe92d;" glyph-name="bar-code" d="M341.333 618.667v-341.333c0-23.467-19.2-42.667-42.667-42.667s-42.667 19.2-42.667 42.667v341.333c0 23.467 19.2 42.667 42.667 42.667s42.667-19.2 42.667-42.667zM512 661.333c-23.467 0-42.667-19.2-42.667-42.667v-341.333c0-23.467 19.2-42.667 42.667-42.667s42.667 19.2 42.667 42.667v341.333c0 23.467-19.2 42.667-42.667 42.667zM725.333 234.667c23.467 0 42.667 19.2 42.667 42.667v341.333c0 23.467-19.2 42.667-42.667 42.667s-42.667-19.2-42.667-42.667v-341.333c0-23.467 19.2-42.667 42.667-42.667zM298.667 832h-128c-46.933 0-85.333-38.4-85.333-85.333v-128c0-23.467 19.2-42.667 42.667-42.667s42.667 19.2 42.667 42.667v128h128c23.467 0 42.667 19.2 42.667 42.667s-19.2 42.667-42.667 42.667zM853.333 832h-128c-23.467 0-42.667-19.2-42.667-42.667s19.2-42.667 42.667-42.667h128v-128c0-23.467 19.2-42.667 42.667-42.667s42.667 19.2 42.667 42.667v128c0 46.933-38.4 85.333-85.333 85.333zM298.667 149.333h-128v128c0 23.467-19.2 42.667-42.667 42.667s-42.667-19.2-42.667-42.667v-128c0-46.933 38.4-85.333 85.333-85.333h128c23.467 0 42.667 19.2 42.667 42.667s-19.2 42.667-42.667 42.667zM896 320c-23.467 0-42.667-19.2-42.667-42.667v-128h-128c-23.467 0-42.667-19.2-42.667-42.667s19.2-42.667 42.667-42.667h128c46.933 0 85.333 38.4 85.333 85.333v128c0 23.467-19.2 42.667-42.667 42.667zM618.667 661.333c-11.947 0-21.333-9.387-21.333-21.333v-384c0-11.947 9.387-21.333 21.333-21.333s21.333 9.387 21.333 21.333v384c0 11.947-9.387 21.333-21.333 21.333zM405.333 661.333c-11.947 0-21.333-9.387-21.333-21.333v-384c0-11.947 9.387-21.333 21.333-21.333s21.333 9.387 21.333 21.333v384c0 11.947-9.387 21.333-21.333 21.333z" />
<glyph unicode="&#xe92e;" glyph-name="offer" d="M460.8 21.333c-21.333 0-42.667 8.533-59.733 25.6l-285.867 285.867c-21.333 17.067-29.867 38.4-29.867 64s8.533 42.667 25.6 59.733l320 320c4.267 4.267 12.8 8.533 21.333 12.8l379.733 85.333c12.8 4.267 29.867 0 38.4-12.8l59.733-59.733c8.533-8.533 12.8-25.6 8.533-38.4l-85.333-379.734c0-8.533-4.267-12.8-12.8-21.333l-320-320c-17.067-12.8-38.4-21.333-59.733-21.333zM482.133 704l-311.467-307.2 285.867-290.133 311.467 311.467 81.067 345.6-25.6 25.6-341.333-85.333zM640 469.333c-25.6 0-55.467 8.533-76.8 29.867-42.667 42.667-42.667 110.934 0 149.334s110.933 42.667 149.333 0c38.4-42.667 42.667-110.933 0-149.334-17.067-21.333-46.933-29.867-72.533-29.867zM640 597.334c-4.267 0-12.8 0-17.067-4.267-8.533-8.533-8.533-21.333 0-29.867s21.333-8.533 29.867 0c8.533 8.533 8.533 21.333 0 29.867 0 4.267-8.533 4.267-12.8 4.267zM482.133 247.467c8.533-8.533 17.067-12.8 29.867-12.8s21.333 4.267 29.867 12.8c17.067 17.067 17.067 42.667 0 59.733l-170.667 170.667c-17.067 17.067-42.667 17.067-59.733 0s-17.067-42.667 0-59.733l170.667-170.667z" />
<glyph unicode="&#xe92f;" glyph-name="shield-off" d="M363.7 734.096l-66.151 66.076 183.94 69.059c19.209 7.247 40.546 7.247 59.75 0l256.068-95.916c33.289-12.363 55.479-44.335 55.479-79.717v-210.164c0-69.909-13.653-135.561-40.542-197.372l-66.15 66.074c14.084 41.779 21.338 85.261 21.338 131.298v210.59l-256.068 95.916-148.091-55.418 0.427-0.426zM883.516 34.121c-16.644-16.623-43.529-16.623-60.173 0l-107.123 106.999c-51.213-54.562-110.537-94.208-179.674-115.951-15.791-5.116-33.289-5.116-49.079 0-87.917 27.712-161.323 81.847-220.219 162.846-64.444 88.67-96.452 186.718-96.452 294.566v202.918l-72.979 72.896c-16.645 16.625-16.645 43.482 0 60.108s43.532 16.625 60.176 0l725.523-724.7c16.644-16.623 16.644-43.482 0-60.109v0.427zM655.616 201.655l-399.891 399.437v-117.658c0-86.11 24.326-164.122 72.553-234.462 48.226-70.336 109.683-117.231 183.514-140.676 55.484 17.481 102.857 49.451 143.825 93.359z" />
<glyph unicode="&#xe930;" glyph-name="set-figures" d="M695.044 503.040c8.533-8.107 19.2-12.373 30.293-12.373l-0.427 0.427c11.093 0 21.76 3.84 30.293 12.373l128 128c16.64 16.64 16.64 43.52 0 60.16l-128 128c-16.64 16.64-43.52 16.64-60.16 0l-128-128.427c-16.64-16.64-16.64-43.52 0-60.16l128-128zM725.338 593.493l-67.84 67.84 67.84 67.84 67.84-67.84-67.84-67.84zM170.667 490.667h256c23.467 0 42.667 19.2 42.667 42.667v256c0 23.467-19.2 42.667-42.667 42.667h-256c-23.467 0-42.667-19.2-42.667-42.667v-256c0-23.467 19.2-42.667 42.667-42.667zM384 576h-170.667v170.667h170.667v-170.667zM725.333 64c-94.293 0-170.667 76.373-170.667 170.667s76.373 170.667 170.667 170.667c94.293 0 170.667-76.373 170.667-170.667s-76.373-170.667-170.667-170.667zM725.333 320c-46.933 0-85.333-38.4-85.333-85.333s38.4-85.333 85.333-85.333c46.933 0 85.333 38.4 85.333 85.333s-38.4 85.333-85.333 85.333zM170.665 64h256.428c14.933 0 28.587 7.68 36.267 20.053s8.533 28.16 1.707 41.387l-128.002 256c-14.507 29.013-61.867 29.013-76.373 0l-128-256c-6.827-13.227-5.973-29.013 1.707-41.387s21.333-20.053 36.267-20.053zM357.545 149.333h-117.76l58.88 117.76 58.88-117.76z" />
<glyph unicode="&#xe931;" glyph-name="sort" d="M840.973 606.293l-128 128c-3.84 3.84-8.533 7.253-14.080 9.387-10.24 4.267-22.187 4.267-32.427 0-5.12-2.56-10.24-5.547-14.080-9.387l-128-128c-16.64-16.64-16.64-43.52 0-60.16s43.52-16.64 60.16 0l55.467 55.040v-409.173c0-23.467 19.2-42.667 42.667-42.667s42.667 19.2 42.667 42.667v409.173l55.040-55.040c8.533-8.533 19.2-12.8 30.293-12.8s21.76 4.267 30.293 12.373c16.64 16.64 16.64 43.947 0 60.587zM439.053 350.293l-55.040-55.467v409.173c0 23.467-19.2 42.667-42.667 42.667s-42.667-19.2-42.667-42.667v-409.173l-55.040 55.467c-16.64 16.64-43.52 16.64-60.16 0s-16.64-43.52 0-60.16l128-128c3.84-3.84 8.533-7.253 14.080-9.387 4.693-2.133 10.24-3.413 15.787-3.413s11.093 1.28 16.213 3.413c5.12 2.133 9.813 5.12 14.080 9.387l128 128c16.64 16.64 16.64 43.52 0 60.16s-43.947 16.64-60.587 0z" />
<glyph unicode="&#xe932;" glyph-name="gift" d="M811.093 704.050h-2.56c7.68 40.533-4.267 73.813-23.467 94.293-33.28 36.267-106.24 55.893-202.667-8.533-28.587-19.2-50.347-41.813-65.707-63.147-15.787 20.907-37.12 43.947-65.707 63.147-96.853 64.427-169.813 44.8-203.093 8.533-18.773-20.48-31.147-53.76-23.467-94.293h-11.093c-46.933 0-85.333-38.4-85.333-85.333v-127.999c0-23.467 19.2-42.667 42.667-42.667v-298.667c0-46.933 38.4-85.333 85.333-85.333h512c46.933 0 85.333 38.4 85.333 85.333v298.667c23.467 0 42.667 19.2 42.667 42.667v127.999c0 46.933-38.4 85.333-85.333 85.333h0.427zM811.093 533.383h-256v85.333h256v-85.333zM722.347 740.743c4.693-5.12 4.693-18.773-3.413-36.693h-108.373c5.973 5.12 11.947 10.24 19.2 14.933 52.907 34.987 84.907 29.867 92.587 21.76zM311.040 740.743c7.68 8.107 39.68 13.227 92.587-21.76 7.253-4.693 13.227-9.813 19.2-14.933h-108.373c-8.107 17.92-8.107 31.573-3.413 36.693zM213.76 618.717h256v-85.333h-256v85.333zM256.427 448.051h213.333v-298.667h-213.333v298.667zM768.427 149.385h-213.333v298.667h213.333v-298.667z" />
<glyph unicode="&#xe933;" glyph-name="poligon" d="M805.12 356.693l-35.413 211.627c24.747 23.467 40.96 56.32 40.96 93.013 0 70.4-57.6 128-128 128-55.467 0-102.4-35.84-120.32-85.333h-186.453c-17.493 49.493-64.427 85.333-120.32 85.333-69.973 0-127.573-57.6-127.573-128 0-57.6 38.4-105.813 90.88-122.027l35.413-211.627c-24.747-23.467-40.96-56.32-40.96-93.013 0-70.4 57.6-128 128-128 55.467 0 102.4 35.84 120.32 85.333h186.453c17.493-49.493 64.427-85.333 120.32-85.333 70.4 0 128 57.6 128 128 0 57.6-38.4 105.813-90.88 122.027h-0.427zM682.667 704c23.467 0 42.667-19.2 42.667-42.667s-19.2-42.667-42.667-42.667c-23.467 0-42.667 19.2-42.667 42.667s19.2 42.667 42.667 42.667zM256 704c23.467 0 42.667-19.2 42.667-42.667s-19.2-42.667-42.667-42.667c-23.467 0-42.667 19.2-42.667 42.667s19.2 42.667 42.667 42.667zM304.64 543.147c33.28 13.653 59.307 41.387 71.253 75.52h186.453c17.493-49.493 64.427-85.333 120.32-85.333 2.133 0 4.267 0.427 6.4 0.853l30.293-180.907c-33.28-13.653-59.307-41.387-71.253-75.52h-186.453c-17.493 49.493-64.427 85.333-120.32 85.333-2.133 0-4.267-0.427-6.4-0.853l-30.293 180.907zM341.333 192c-23.467 0-42.667 19.2-42.667 42.667s19.2 42.667 42.667 42.667c23.467 0 42.667-19.2 42.667-42.667s-19.2-42.667-42.667-42.667zM768 192c-23.467 0-42.667 19.2-42.667 42.667s19.2 42.667 42.667 42.667c23.467 0 42.667-19.2 42.667-42.667s-19.2-42.667-42.667-42.667z" />
<glyph unicode="&#xe934;" glyph-name="faq" d="M511.787 832c-234.976 0-426.453-153.173-426.453-341.333 0-95.147 49.042-181.333 127.936-243.2v-140.8c0-14.933 8.103-29.013 20.896-36.693 6.823-3.84 14.073-5.973 21.749-5.973s14.073 1.707 20.896 5.547l155.227 86.187c26.014-3.84 52.881-6.4 80.175-6.4 234.974 0 426.453 153.173 426.453 341.333s-191.906 341.333-426.88 341.333zM511.787 277.333c-23.454 0-42.645 19.2-42.645 42.667s19.191 42.667 42.645 42.667c23.454 0 42.645-19.2 42.645-42.667s-19.191-42.667-42.645-42.667zM581.299 507.307c-16.631-8.96-26.867-23.893-26.867-39.68v-19.627c0-23.467-19.191-42.667-42.645-42.667s-42.645 19.2-42.645 42.667v19.627c0 47.36 27.721 91.307 72.073 114.773 7.676 4.267 13.218 10.24 13.218 14.507 0 7.68-16.205 21.333-42.645 21.333s-42.645-13.653-42.645-21.333c0-23.467-19.191-42.667-42.645-42.667s-42.645 19.2-42.645 42.667c0 59.733 56.29 106.667 127.936 106.667s127.936-46.933 127.936-106.667c0-36.693-21.747-70.4-58.423-90.027v0.427z" />
<glyph unicode="&#xe935;" glyph-name="invisible" d="M760.755 471.467c-0.427 0.427-0.849 0.427-0.849 0.853 35.413 35.413 66.129 78.079 89.596 127.999 10.24 21.333 0.858 46.507-20.476 56.747s-46.507 0.853-56.747-20.48c-55.040-116.052-154.884-188.585-260.271-188.585-105.385 0-205.225 72.533-260.265 189.012-9.813 20.907-35.413 30.293-56.747 20.053-21.333-9.813-30.293-35.413-20.053-56.747 23.467-49.493 54.187-92.159 89.6-127.999-0.427 0-1.28-0.427-1.28-0.853l-85.333-128c-13.227-19.627-7.68-46.080 11.947-59.307 7.253-4.693 15.36-6.827 23.467-6.827 13.653 0 27.307 6.827 35.413 19.2l81.493 122.453c43.093-28.16 90.027-46.080 139.091-52.907v-131.413c0-23.467 19.2-42.667 42.667-42.667s42.667 19.2 42.667 42.667v131.413c49.067 6.827 96 24.747 139.098 52.48l81.489-122.453c8.107-11.947 21.764-18.773 35.413-18.773 8.107 0 16.213 2.133 23.471 7.253 19.627 13.227 24.742 39.68 11.942 59.307l-85.333 127.573z" />
<glyph unicode="&#xe936;" glyph-name="online-pay" d="M810.667 746.667h-597.333c-46.933 0-85.333-38.4-85.333-85.333v-426.667c0-46.933 38.4-85.333 85.333-85.333h85.333c23.467 0 42.667 19.2 42.667 42.667s-19.2 42.667-42.667 42.667h-85.333v256h597.333v-256h-85.333c-23.467 0-42.667-19.2-42.667-42.667s19.2-42.667 42.667-42.667h85.333c46.933 0 85.333 38.4 85.333 85.333v426.667c0 46.933-38.4 85.333-85.333 85.333zM213.333 576v85.333h597.333v-85.333h-597.333zM554.667 149.333c0-23.467-19.2-42.667-42.667-42.667s-42.667 19.2-42.667 42.667c0 23.467 19.2 42.667 42.667 42.667s42.667-19.2 42.667-42.667zM692.907 287.573c-11.093 0-21.76 4.267-30.293 12.373-40.107 40.107-93.867 62.293-151.040 62.293s-110.507-22.187-151.040-62.293c-16.64-16.64-43.52-16.64-60.16 0s-16.64 43.52 0 60.16c56.32 56.32 131.413 87.467 211.2 87.467s154.88-31.147 211.2-87.467c16.64-16.64 16.64-43.52 0-60.16-8.533-8.533-19.2-12.373-30.293-12.373h0.427zM632.747 270.080c16.64-16.64 16.64-43.52 0-60.16-8.533-8.533-19.2-12.373-30.293-12.373s-21.76 4.267-30.293 12.373c-32.427 32.427-88.32 32.427-120.747 0-16.64-16.64-43.52-16.64-60.16 0s-16.64 43.52 0 60.16c64.427 64.427 176.64 64.427 241.493 0z" />
<glyph unicode="&#xe938;" glyph-name="attach-file" d="M384 64c-68.267 0-132.693 26.453-180.907 75.093-48.213 48.213-75.093 112.64-75.093 180.907s26.453 132.693 75.093 180.907l286.72 286.72c74.667 74.667 196.693 75.093 271.36 0 36.267-36.267 56.32-84.48 56.32-135.68s-20.053-99.413-56.32-135.68l-286.72-286.72c-49.92-49.92-130.987-49.92-180.907 0-24.32 24.32-37.547 56.32-37.547 90.453s13.227 66.133 37.547 90.453l241.493 241.493c16.64 16.64 43.52 16.64 60.16 0s16.64-43.52 0-60.16l-241.493-241.493c-8.107-8.107-12.373-18.773-12.373-30.293s4.267-22.187 12.373-30.293c16.64-16.64 43.52-16.64 60.16 0l286.72 286.72c20.053 20.053 31.147 46.933 31.147 75.52s-11.093 55.467-31.147 75.52c-40.533 40.107-110.507 40.107-151.040 0l-286.72-286.72c-32.427-32.427-49.92-75.093-49.92-120.747s17.92-88.32 49.92-120.747c64.427-64.427 176.64-64.427 241.493 0l241.493 241.493c16.64 16.64 43.52 16.64 60.16 0s16.64-43.52 0-60.16l-241.493-241.493c-48.213-48.213-112.64-75.093-180.907-75.093h0.427z" />
<glyph unicode="&#xe939;" glyph-name="repeat-refresh" d="M853.333 789.333c23.565 0 42.667-19.103 42.667-42.667v-170.667c0-23.564-19.102-42.667-42.667-42.667h-170.667c-23.565 0-42.667 19.103-42.667 42.667s19.102 42.667 42.667 42.667h74.24c-27.494 39.484-64.119 71.743-106.761 94.029s-90.031 33.94-138.146 33.971c-79.211 0-155.178-31.467-211.189-87.478s-87.478-131.978-87.478-211.189c0-79.211 31.467-155.179 87.478-211.187 56.011-56.013 131.978-87.479 211.189-87.479s155.179 31.467 211.187 87.479c45.892 45.888 75.307 105.173 84.437 168.661 3.354 23.326 22.144 42.526 45.709 42.526s42.914-19.162 40.299-42.581c-9.613-86.178-48.196-167.044-110.101-228.949-72.017-72.013-169.69-112.469-271.531-112.469-101.843 0-199.515 40.457-271.529 112.469-72.014 72.017-112.471 169.69-112.471 271.531 0 101.843 40.457 199.515 112.471 271.529s169.685 112.471 271.529 112.471c57.327-0.087 113.907-13.008 165.589-37.815s97.152-60.87 133.077-105.545v58.026c0 23.564 19.102 42.667 42.667 42.667z" />
<glyph unicode="&#xe93a;" glyph-name="list" d="M256 704c0-23.564-19.103-42.667-42.667-42.667s-42.667 19.103-42.667 42.667c0 23.564 19.103 42.667 42.667 42.667s42.667-19.103 42.667-42.667zM384 661.333h426.667c23.467 0 42.667 19.2 42.667 42.667s-19.2 42.667-42.667 42.667h-426.667c-23.467 0-42.667-19.2-42.667-42.667s19.2-42.667 42.667-42.667zM810.667 490.667h-426.667c-23.467 0-42.667 19.2-42.667 42.667s19.2 42.667 42.667 42.667h426.667c23.467 0 42.667-19.2 42.667-42.667s-19.2-42.667-42.667-42.667zM256 533.333c0-23.565-19.103-42.667-42.667-42.667s-42.667 19.102-42.667 42.667c0 23.564 19.103 42.667 42.667 42.667s42.667-19.103 42.667-42.667zM810.667 320h-426.667c-23.467 0-42.667 19.2-42.667 42.667s19.2 42.667 42.667 42.667h426.667c23.467 0 42.667-19.2 42.667-42.667s-19.2-42.667-42.667-42.667zM256 362.667c0-23.565-19.103-42.667-42.667-42.667s-42.667 19.102-42.667 42.667c0 23.565 19.103 42.667 42.667 42.667s42.667-19.102 42.667-42.667zM810.667 149.333h-426.667c-23.467 0-42.667 19.2-42.667 42.667s19.2 42.667 42.667 42.667h426.667c23.467 0 42.667-19.2 42.667-42.667s-19.2-42.667-42.667-42.667zM256 192c0-23.565-19.103-42.667-42.667-42.667s-42.667 19.102-42.667 42.667c0 23.565 19.103 42.667 42.667 42.667s42.667-19.102 42.667-42.667z" />
<glyph unicode="&#xe93b;" glyph-name="support" d="M784.034 614.4c-34.133 128-149.333 217.6-285.867 217.6s-251.734-89.6-285.868-217.6c-81.067-12.8-140.8-81.067-140.8-166.4v-85.333c0-93.867 76.8-170.667 170.667-170.667h42.667c25.6 0 42.667 17.067 42.667 42.667v341.333c0 17.067-8.533 34.133-25.6 38.4 34.133 81.067 106.667 132.267 196.268 132.267s162.133-51.2 196.267-132.267c-17.067-4.267-25.6-21.333-25.6-38.4v-341.333c0-21.333 12.8-34.133 29.867-38.4-12.8-25.6-42.667-46.933-72.533-46.933h-42.667c0 25.6-17.067 42.667-42.667 42.667h-128.001c-25.6 0-42.667-17.067-42.667-42.667v-42.667c0-25.6 17.067-42.667 42.667-42.667h213.334c81.067 0 149.333 55.467 166.4 132.267 76.8 17.067 132.267 85.333 132.267 166.4v85.333c0 85.333-59.733 153.6-140.8 166.4zM242.167 277.333c-46.933 0-85.333 38.4-85.333 85.333v85.333c0 46.933 38.4 85.333 85.333 85.333v-256zM839.501 362.667c0-46.933-38.4-85.333-85.333-85.333v256c46.933 0 85.333-38.4 85.333-85.333v-85.333z" />
<glyph unicode="&#xe93d;" glyph-name="characteristic" d="M263.248 728.747c15.787 23.893 55.040 23.893 70.827 0l170.668-256c9.387-14.507 9.387-32.853 0-47.36l-170.668-256c-7.68-11.947-21.333-19.2-35.413-19.2s-27.307 7.253-35.413 19.2l-170.667 256c-9.387 14.507-9.387 32.853 0 47.36l170.667 256zM179.195 449.28l119.467-179.2 119.467 179.2-119.467 179.2-119.467-179.2zM640 491.947h256c23.467 0 42.667-19.2 42.667-42.667s-19.2-42.667-42.667-42.667h-256c-23.467 0-42.667 19.2-42.667 42.667s19.2 42.667 42.667 42.667zM640 577.281h256c23.467 0 42.667 19.2 42.667 42.667s-19.2 42.667-42.667 42.667h-256c-23.467 0-42.667-19.2-42.667-42.667s19.2-42.667 42.667-42.667zM640 321.28h256c23.467 0 42.667-19.2 42.667-42.667s-19.2-42.667-42.667-42.667h-256c-23.467 0-42.667 19.2-42.667 42.667s19.2 42.667 42.667 42.667z" />
<glyph unicode="&#xe93e;" glyph-name="star-outline" d="M512.853 704.427l64.853-132.267c12.373-25.173 36.267-42.667 64-46.933l151.040-22.187-107.947-104.96c-20.053-19.627-29.44-47.787-24.747-75.093l24.32-145.067-133.12 69.973c-24.747 13.227-54.613 13.227-79.36 0l-130.987-69.12 24.32 145.92c4.693 27.733-4.694 55.467-24.747 75.093l-106.24 103.253 149.333 21.76c27.733 4.267 52.053 21.76 64.427 46.933l64.853 132.267zM513.707 832c-18.347 0-36.693-8.533-46.080-25.6l-96.427-196.693-218.88-32c-17.92-2.133-34.133-16.213-40.106-34.133s0-37.973 11.946-52.053l156.587-152.32-36.267-216.747c-3.84-17.92 3.84-37.973 20.054-48.213 8.96-6.827 18.773-9.813 29.013-9.813 8.107 0 16.213 2.133 23.467 5.547l194.56 102.4 194.56-102.4c8.107-3.84 16.213-5.973 23.893-5.973 10.24 0 20.053 3.84 30.293 10.24 16.213 11.947 23.893 30.293 20.053 48.213l-36.267 214.613 156.587 152.32c10.24 16.213 16.213 36.267 10.24 54.187s-22.187 32-40.107 34.133l-216.747 32-96.427 196.693c-8.107 17.067-26.027 25.6-44.373 25.6h0.427z" />
<glyph unicode="&#xe940;" glyph-name="paragraph" d="M433.028 746.665c-40.096 0.649-79.203-12.465-110.802-37.154s-53.783-59.464-62.851-98.526c-5.207-24.859-4.799-50.568 1.193-75.249s17.417-47.714 33.443-67.421c16.026-19.703 36.247-35.584 59.19-46.481 22.943-10.893 48.029-16.533 73.427-16.499v-213.333c0-23.565 19.102-42.667 42.667-42.667s42.667 19.102 42.667 42.667v469.331h85.333v-469.331c0-23.565 19.102-42.667 42.667-42.667s42.667 19.102 42.667 42.667v469.331h42.667c23.565 0 42.667 19.103 42.667 42.667s-19.102 42.667-42.667 42.667h-292.267zM341.295 575.998c0 22.632 8.991 44.337 24.994 60.34s37.708 24.994 60.34 24.994v-170.665c-22.632 0-44.337 8.99-60.34 24.99-16.003 16.004-24.994 37.71-24.994 60.341z" />
<glyph unicode="&#xe942;" glyph-name="percent" d="M405.333 490.667c35.345 0 64 28.655 64 64 0 35.346-28.655 64-64 64-35.346 0-64-28.654-64-64 0-35.345 28.654-64 64-64zM620.8 611.413c-19.627 13.227-46.080 7.68-59.307-11.947l-170.667-256c-13.227-19.627-7.68-46.080 11.947-59.307 7.253-4.693 15.36-7.253 23.467-7.253 13.653 0 27.307 6.827 35.413 19.2l170.667 256c13.227 19.627 7.68 46.080-11.947 59.307h0.427zM618.667 277.333c35.345 0 64 28.655 64 64s-28.655 64-64 64c-35.345 0-64-28.655-64-64s28.655-64 64-64zM512 832c-211.627 0-384-172.373-384-384s172.373-384 384-384c211.627 0 384 172.373 384 384s-172.373 384-384 384zM512 149.333c-164.693 0-298.667 133.973-298.667 298.667s133.973 298.667 298.667 298.667c164.693 0 298.667-133.973 298.667-298.667s-133.973-298.667-298.667-298.667z" />
<glyph unicode="&#xe943;" glyph-name="dice" d="M469.333 832h298.667c70.4 0 128-57.6 128-128v-298.667c0-70.4-57.6-128-128-128h-85.333v-85.333c0-70.4-57.6-128-128-128h-298.667c-70.4 0-128 57.6-128 128v298.667c0 70.4 57.6 128 128 128h85.333v85.333c0 70.4 57.6 128 128 128zM554.667 149.333c23.467 0 42.667 19.2 42.667 42.667v298.667c0 23.467-19.2 42.667-42.667 42.667h-298.667c-23.467 0-42.667-19.2-42.667-42.667v-298.667c0-23.467 19.2-42.667 42.667-42.667h298.667zM768 362.667c23.467 0 42.667 19.2 42.667 42.667v298.667c0 23.467-19.2 42.667-42.667 42.667h-298.667c-23.467 0-42.667-19.2-42.667-42.667v-85.333h128c70.4 0 128-57.6 128-128v-128h85.333zM384 256c0-35.345-28.654-64-64-64s-64 28.655-64 64c0 35.345 28.654 64 64 64s64-28.655 64-64zM490.667 362.667c35.345 0 64 28.655 64 64s-28.655 64-64 64c-35.345 0-64-28.655-64-64s28.655-64 64-64zM768 640c0-35.346-28.655-64-64-64s-64 28.654-64 64c0 35.346 28.655 64 64 64s64-28.654 64-64z" />
<glyph unicode="&#xe944;" glyph-name="map" d="M920.747 823.893c-11.093 8.107-25.6 10.24-38.4 5.973l-242.347-80.64-242.347 80.64c0 0-2.133 0-2.987 0.427-1.707 0.427-3.84 0.853-5.547 1.28-1.707 0-3.413 0-4.693 0-1.707 0-3.413 0-4.693 0-2.133 0-3.84-0.853-5.547-1.28-0.853 0-2.133 0-2.987-0.427l-256.853-85.333c-17.493-5.973-29.013-22.187-29.013-40.533v-597.333c0-13.653 6.4-26.453 17.92-34.56 7.253-5.12 16.213-8.107 24.747-8.107 4.693 0 8.96 0.853 13.653 2.133l242.347 80.64 242.347-80.64c4.267-1.28 8.96-2.133 13.227-2.133s8.96 0.853 13.227 2.133l256 85.333c17.493 5.973 29.013 22.187 29.013 40.533v597.333c0 13.653-6.4 26.453-17.92 34.56h0.853zM170.667 165.973v507.306l170.667 56.747v-507.306l-170.667-56.747zM426.667 730.026l170.667-56.747v-507.306l-170.667 56.747v507.306zM853.333 222.72l-170.667-56.747v507.306l170.667 56.747v-507.306z" />
<glyph unicode="&#xe945;" glyph-name="comment-mark" d="M341.333 490.667c-23.467 0-42.667-19.2-42.667-42.667s19.2-42.667 42.667-42.667h170.667c23.467 0 42.667 19.2 42.667 42.667s-19.2 42.667-42.667 42.667h-170.667zM725.333 576c0 23.467-19.2 42.667-42.667 42.667h-341.333c-23.467 0-42.667-19.2-42.667-42.667s19.2-42.667 42.667-42.667h341.333c23.467 0 42.667 19.2 42.667 42.667zM810.667 277.333h-256c-9.813 0-19.2-3.413-26.453-9.387l-144.213-115.2v81.92c0 23.467-19.2 42.667-42.667 42.667h-128v469.333h426.667c0 31.147 8.96 60.16 23.467 85.333h-450.133c-46.933 0-85.333-38.4-85.333-85.333v-469.333c0-46.933 38.4-85.333 85.333-85.333h85.333v-128c0-16.213 9.387-31.147 24.32-38.4 5.973-2.987 12.373-4.267 18.347-4.267 9.387 0 18.773 2.987 26.453 9.387l201.813 161.28h241.067c46.933 0 85.333 38.4 85.333 85.333v322.133c-25.173-14.507-54.187-23.467-85.333-23.467v-298.667zM810.667 618.667c70.694 0 128 57.308 128 128s-57.306 128-128 128c-70.694 0-128-57.308-128-128s57.306-128 128-128z" />
<glyph unicode="&#xe946;" glyph-name="add-to-card" d="M426.667 106.667c0-46.933-38.4-85.333-85.333-85.333s-85.333 38.4-85.333 85.333c0 46.933 38.4 85.333 85.333 85.333s85.333-38.4 85.333-85.333zM725.333 192c-46.933 0-85.333-38.4-85.333-85.333s38.4-85.333 85.333-85.333c46.933 0 85.333 38.4 85.333 85.333s-38.4 85.333-85.333 85.333zM753.92 405.333c15.36 0 29.867 8.533 37.12 21.76l142.080 256c11.52 20.48 3.84 46.507-16.64 58.027s-46.507 3.84-58.027-16.64l-130.133-234.24h-276.907l-188.587 340.48c-14.933 26.88-43.52 43.947-74.667 43.947h-60.16c-23.467 0-42.667-19.2-42.667-42.667s19.2-42.667 42.667-42.667h60.16l189.44-341.333-48.213-86.613c-14.933-26.453-14.507-58.453 0.853-84.48 15.36-26.453 43.093-42.24 73.387-42.24h363.52c23.467 0 42.667 19.2 42.667 42.667s-19.2 42.667-42.667 42.667h-363.52l47.36 85.333h302.933zM469.333 661.333h85.333v-85.333c0-23.467 19.2-42.667 42.667-42.667s42.667 19.2 42.667 42.667v85.333h85.333c23.467 0 42.667 19.2 42.667 42.667s-19.2 42.667-42.667 42.667h-85.333v85.333c0 23.467-19.2 42.667-42.667 42.667s-42.667-19.2-42.667-42.667v-85.333h-85.333c-23.467 0-42.667-19.2-42.667-42.667s19.2-42.667 42.667-42.667z" />
<glyph unicode="&#xe947;" glyph-name="cloud-off" d="M200.96 734.293c-16.64 16.64-43.52 16.64-60.16 0s-16.64-43.52 0-60.16l99.413-99.413c-110.080-8.533-197.12-99.413-197.12-211.627 0-117.76 95.573-213.333 213.333-213.333h409.173l72.96-72.96c8.533-8.533 19.2-12.373 30.293-12.373s21.76 4.267 30.293 12.373c16.64 16.64 16.64 43.52 0 60.16l-598.186 597.333zM256 234.667c-70.4 0-128 57.6-128 128s57.6 128 128 128h67.84l256-256h-323.84zM981.333 341.333c0-72.107-40.533-134.4-99.84-167.253l-64.853 64.853c45.227 12.373 78.933 53.333 78.933 102.4 0 53.333-40.533 98.56-93.867 105.387-18.773 2.133-34.133 16.64-37.12 35.413-16.64 103.68-105.387 179.2-210.347 179.2-44.8 0-87.040-14.080-122.027-38.4l-60.586 60.587c51.2 39.68 114.773 63.147 182.613 63.147 137.387 0 254.293-91.733 288.427-221.867 80.64-23.467 138.24-97.707 138.24-183.467h0.427z" />
<glyph unicode="&#xe948;" glyph-name="double-arrow-left" d="M439.3 247.049c8.538-8.111 19.217-12.382 30.319-12.382s21.777 4.271 29.892 12.809c16.653 16.653 16.653 43.554 0 60.207l-140.492 140.48 140.492 140.477c16.653 16.652 16.653 43.553 0 60.205-16.657 16.652-43.558 16.652-60.211 0l-170.81-170.794c-16.654-16.653-16.654-43.554 0-60.207l170.81-170.795zM695.3 247.049c8.538-8.111 19.217-12.382 30.319-12.382s21.777 4.271 29.892 12.809c16.653 16.653 16.653 43.554 0 60.207l-140.493 140.48 140.493 140.477c16.653 16.652 16.653 43.553 0 60.205-16.657 16.652-43.558 16.652-60.211 0l-170.812-170.794c-16.653-16.653-16.653-43.554 0-60.207l170.812-170.795z" />
<glyph unicode="&#xe949;" glyph-name="double-arrow-down" d="M712.951 631.299c8.111 8.541 12.382 19.216 12.382 30.319s-4.271 21.778-12.809 29.891c-16.653 16.654-43.554 16.654-60.207 0l-140.48-140.491-140.477 140.491c-16.652 16.654-43.553 16.654-60.205 0s-16.652-43.556 0-60.21l170.794-170.811c16.653-16.653 43.554-16.653 60.207 0l170.795 170.811zM712.951 375.3c8.111 8.538 12.382 19.217 12.382 30.319s-4.271 21.777-12.809 29.892c-16.653 16.653-43.554 16.653-60.207 0l-140.48-140.493-140.477 140.493c-16.653 16.653-43.553 16.653-60.205 0-16.652-16.657-16.652-43.558 0-60.211l170.794-170.812c16.653-16.653 43.554-16.653 60.207 0l170.795 170.812z" />
<glyph unicode="&#xe94a;" glyph-name="double-arrow-up" d="M311.049 520.7c-8.113-8.538-12.383-19.217-12.383-30.319s4.27-21.777 12.81-29.892c16.652-16.653 43.552-16.653 60.205 0l140.481 140.492 140.476-140.492c16.653-16.653 43.554-16.653 60.207 0 16.653 16.657 16.653 43.558 0 60.211l-170.795 170.81c-16.653 16.654-43.554 16.654-60.207 0l-170.794-170.81zM311.049 264.7c-8.113-8.538-12.383-19.217-12.383-30.319s4.27-21.777 12.809-29.892c16.653-16.653 43.553-16.653 60.205 0l140.481 140.493 140.476-140.493c16.653-16.653 43.554-16.653 60.207 0 16.653 16.657 16.653 43.558 0 60.211l-170.795 170.812c-16.653 16.653-43.554 16.653-60.207 0l-170.794-170.812z" />
<glyph unicode="&#xe94b;" glyph-name="double-arrow-right" d="M584.7 648.951c-8.538 8.113-19.217 12.383-30.319 12.383s-21.777-4.27-29.892-12.81c-16.653-16.652-16.653-43.552 0-60.205l140.493-140.481-140.493-140.476c-16.653-16.653-16.653-43.554 0-60.207 16.657-16.653 43.558-16.653 60.211 0l170.812 170.795c16.653 16.653 16.653 43.554 0 60.207l-170.812 170.794zM328.701 648.951c-8.541 8.113-19.216 12.383-30.319 12.383s-21.778-4.27-29.892-12.81c-16.654-16.652-16.654-43.552 0-60.205l140.491-140.481-140.491-140.476c-16.654-16.653-16.654-43.554 0-60.207s43.556-16.653 60.21 0l170.811 170.795c16.653 16.653 16.653 43.554 0 60.207l-170.811 170.794z" />
<glyph unicode="&#xe94c;" glyph-name="filter-mark" d="M615.083 832h-444.255c-15.36 0-29.44-8.102-37.12-21.748s-7.68-29.85 0.427-43.069l250.027-416.62v-243.921c0-14.925 7.68-28.57 20.053-36.245 6.827-4.262 14.934-6.396 22.615-6.396v0.427c6.827 0 13.227 1.707 19.2 4.689l170.667 85.286c14.507 6.822 23.467 21.747 23.467 37.952v158.635l114.074 189.888c-28.169 7.707-54.016 21.044-76.25 38.726l-117.184-195.355c-3.84-6.396-5.973-14.071-5.973-21.747v-144.132l-85.333-42.645v186.778c0 7.676-2.133 14.925-5.973 21.747l-217.174 362.040h350.985c0 0.126 0 0.253 0 0.379 0 30.34 6.332 59.202 17.749 85.333zM981.333 746.667c0-94.257-76.41-170.667-170.667-170.667s-170.667 76.41-170.667 170.667c0 94.257 76.41 170.667 170.667 170.667s170.667-76.41 170.667-170.667z" />
<glyph unicode="&#xe94d;" glyph-name="tasks-done" d="M682.667 789.333h42.667c70.4 0 128-57.6 128-128v-469.333c0-70.4-57.6-128-128-128h-426.667c-70.4 0-128 57.6-128 128v469.333c0 70.4 57.6 128 128 128h42.667c0 23.467 19.2 42.667 42.667 42.667s42.667-19.2 42.667-42.667h170.667c0 23.467 19.2 42.667 42.667 42.667s42.667-19.2 42.667-42.667zM725.333 149.333c23.467 0 42.667 19.2 42.667 42.667v469.333c0 23.467-19.2 42.667-42.667 42.667h-42.667c0-23.467-19.2-42.667-42.667-42.667s-42.667 19.2-42.667 42.667h-170.667c0-23.467-19.2-42.667-42.667-42.667s-42.667 19.2-42.667 42.667h-42.667c-23.467 0-42.667-19.2-42.667-42.667v-469.333c0-23.467 19.2-42.667 42.667-42.667h426.667zM469.338 380.587l140.373 140.373h0.853c16.64 16.64 43.52 16.64 60.16 0s16.64-43.52 0-60.16l-170.667-170.667c-8.533-8.107-19.2-12.373-30.293-12.373s-21.76 3.84-30.293 12.373l-85.335 85.333c-16.64 16.64-16.64 43.52 0 60.16s43.52 16.64 60.16 0l55.041-55.040z" />
<glyph unicode="&#xe94e;" glyph-name="dot-lists" d="M170.667 512c-34.133 0-64-29.867-64-64s29.867-64 64-64c34.133 0 64 29.867 64 64s-29.867 64-64 64zM170.667 725.333c-34.133 0-64-29.867-64-64s29.867-64 64-64c34.133 0 64 29.867 64 64s-29.867 64-64 64zM170.667 298.667c-34.133 0-64-29.867-64-64s29.867-64 64-64c34.133 0 64 29.867 64 64s-29.867 64-64 64zM362.667 704c-23.564 0-42.667-19.103-42.667-42.667s19.103-42.667 42.667-42.667h512c23.565 0 42.667 19.103 42.667 42.667s-19.102 42.667-42.667 42.667h-512zM320 234.667c0-23.565 19.103-42.667 42.667-42.667h512c23.565 0 42.667 19.102 42.667 42.667s-19.102 42.667-42.667 42.667h-512c-23.564 0-42.667-19.102-42.667-42.667zM320 448c0-23.565 19.103-42.667 42.667-42.667h512c23.565 0 42.667 19.102 42.667 42.667s-19.102 42.667-42.667 42.667h-512c-23.564 0-42.667-19.102-42.667-42.667z" />
<glyph unicode="&#xe94f;" glyph-name="camera-off" d="M158.293 759.040c-16.64 16.64-43.52 16.64-60.16 0s-16.64-43.52 0-60.16l40.533-40.533c-6.4-11.947-10.24-25.173-10.24-39.68v-426.667c0-46.933 38.4-85.333 85.333-85.333h476.587l72.96-72.96c8.533-8.533 19.2-12.373 30.293-12.373s21.76 4.267 30.293 12.373c16.64 16.64 16.64 43.52 0 60.16l-665.6 665.173zM213.333 192v391.253l134.4-134.4c-3.84-14.080-6.4-28.587-6.4-43.52 0-94.293 76.373-170.667 170.667-170.667 15.36 0 29.44 2.56 43.52 6.4l49.067-49.067h-391.253zM896 618.667v-426.667c0-14.507-3.84-27.733-10.24-39.68l-75.093 75.093v391.253h-128c-11.52 0-22.187 4.693-30.293 12.373l-72.96 72.96h-135.253l-55.040-55.040-60.16 60.16 67.84 67.84c8.107 8.107 18.773 12.373 30.293 12.373h170.667c11.52 0 22.187-4.693 30.293-12.373l72.96-72.96h110.507c46.933 0 85.333-38.4 85.333-85.333h-0.853zM676.267 361.813l-207.787 207.787c14.080 3.84 28.587 6.4 43.52 6.4 94.293 0 170.667-76.373 170.667-170.667 0-15.36-2.56-29.44-6.4-43.52z" />
<glyph unicode="&#xe950;" glyph-name="branches" d="M896 704c0 70.4-57.6 128-128 128s-128-57.6-128-128c0-53.76 33.28-99.84 80.213-118.613-14.933-54.187-64-94.72-122.88-94.72h-170.667c-48.213 0-92.16-16.64-128-43.947v136.96c49.493 17.493 85.333 64.427 85.333 120.32 0 70.4-57.6 128-128 128s-128-57.6-128-128c0-55.467 35.84-102.4 85.333-120.32v-271.787c-49.493-17.493-85.333-64.427-85.333-120.32 0-70.4 57.6-128 128-128s128 57.6 128 128c0 53.76-33.28 99.84-80.213 118.613 14.933 54.187 64 94.72 122.88 94.72h170.667c105.387 0 192.427 76.8 209.493 177.493 51.627 16.64 89.173 64.427 89.173 121.173v0.427zM256 746.667c23.467 0 42.667-19.2 42.667-42.667s-19.2-42.667-42.667-42.667c-23.467 0-42.667 19.2-42.667 42.667s19.2 42.667 42.667 42.667zM256 149.333c-23.467 0-42.667 19.2-42.667 42.667s19.2 42.667 42.667 42.667c23.467 0 42.667-19.2 42.667-42.667s-19.2-42.667-42.667-42.667zM768 661.333c-23.467 0-42.667 19.2-42.667 42.667s19.2 42.667 42.667 42.667c23.467 0 42.667-19.2 42.667-42.667s-19.2-42.667-42.667-42.667z" />
<glyph unicode="&#xe951;" glyph-name="smile" d="M128 448c0-213.333 170.667-384 384-384s384 170.667 384 384c0 213.333-170.667 384-384 384s-384-170.667-384-384zM213.333 448c0 166.4 132.267 298.667 298.667 298.667s298.667-132.267 298.667-298.667c0-166.4-132.267-298.667-298.667-298.667s-298.667 132.267-298.667 298.667zM469.333 554.667c0-35.345-28.655-64-64-64-35.346 0-64 28.655-64 64 0 35.346 28.654 64 64 64 35.345 0 64-28.654 64-64zM618.667 490.667c35.345 0 64 28.655 64 64 0 35.346-28.655 64-64 64s-64-28.654-64-64c0-35.345 28.655-64 64-64zM345.6 345.6c4.267-8.533 55.467-110.933 166.4-110.933s162.133 102.4 157.867 110.933c12.8 21.333 4.267 46.933-17.067 55.467-17.067 12.8-42.667 4.267-55.467-17.067 0-4.267-34.133-64-89.6-64s-89.6 64-89.6 64c-8.533 17.067-34.133 25.6-55.467 17.067-17.067-8.533-25.6-34.133-17.067-55.467z" />
<glyph unicode="&#xe952;" glyph-name="print" d="M810.667 704h-42.667v128c0 23.467-19.2 42.667-42.667 42.667h-426.667c-23.467 0-42.667-19.2-42.667-42.667v-128h-42.667c-70.4 0-128-57.6-128-128v-256c0-70.4 57.6-128 128-128h42.667v-128c0-23.467 19.2-42.667 42.667-42.667h426.667c23.467 0 42.667 19.2 42.667 42.667v128h42.667c70.4 0 128 57.6 128 128v256c0 70.4-57.6 128-128 128zM341.333 789.333h341.333v-85.333h-341.333v85.333zM682.667 405.333v-298.667h-341.333v298.667h341.333zM853.333 320c0-23.467-19.2-42.667-42.667-42.667h-42.667v128c23.467 0 42.667 19.2 42.667 42.667s-19.2 42.667-42.667 42.667h-512c-23.467 0-42.667-19.2-42.667-42.667s19.2-42.667 42.667-42.667v-128h-42.667c-23.467 0-42.667 19.2-42.667 42.667v256c0 23.467 19.2 42.667 42.667 42.667h597.333c23.467 0 42.667-19.2 42.667-42.667v-256zM426.667 277.333h170.667c23.467 0 42.667 19.2 42.667 42.667s-19.2 42.667-42.667 42.667h-170.667c-23.467 0-42.667-19.2-42.667-42.667s19.2-42.667 42.667-42.667zM512 149.333h-85.333c-23.467 0-42.667 19.2-42.667 42.667s19.2 42.667 42.667 42.667h85.333c23.467 0 42.667-19.2 42.667-42.667s-19.2-42.667-42.667-42.667z" />
<glyph unicode="&#xe953;" glyph-name="timer" d="M512 64c-188.16 0-341.333 153.173-341.333 341.333s153.173 341.333 341.333 341.333c188.16 0 341.333-153.173 341.333-341.333s-153.173-341.333-341.333-341.333zM512 661.333c-141.227 0-256-114.773-256-256s114.773-256 256-256c141.227 0 256 114.773 256 256s-114.773 256-256 256zM640 832c0 23.467-19.2 42.667-42.667 42.667h-170.667c-23.467 0-42.667-19.2-42.667-42.667s19.2-42.667 42.667-42.667h170.667c23.467 0 42.667 19.2 42.667 42.667zM874.24 646.827c16.64 16.64 16.64 43.52 0 60.16l-60.16 60.16c-16.64 16.64-43.52 16.64-60.16 0s-16.64-43.52 0-60.16l60.16-60.16c8.533-8.533 19.2-12.373 30.293-12.373s21.76 4.267 30.293 12.373h-0.427zM542.293 375.040l90.453 90.453c16.64 16.64 16.64 43.52 0 60.16s-43.52 16.64-60.16 0l-90.453-90.453c-16.64-16.64-16.64-43.52 0-60.16 8.533-8.533 19.2-12.373 30.293-12.373s21.76 4.267 30.293 12.373h-0.427z" />
<glyph unicode="&#xe954;" glyph-name="like" d="M384.427 63.996h383.573c34.133 0 64.853 20.48 78.080 51.627l139.093 324.693c36.267 84.48-25.6 178.346-117.333 178.346h-241.067l40.533 195.413c4.267 21.333-2.133 43.093-17.493 58.453-12.373 12.373-28.587 18.347-44.8 18.347s-32.853-6.4-45.227-18.773l-235.947-236.373c-15.787-15.787-24.747-37.547-24.747-60.16v-426.239c0-46.933 38.4-85.333 85.333-85.333zM569.173 760.742l-26.027-124.587-21.333-102.826h346.027c20.053 0 30.72-11.947 35.413-19.2s11.52-21.76 3.413-40.533l-138.667-324.267h-383.573v426.239l184.747 185.173zM128 63.996c46.933 0 85.333 38.4 85.333 85.333v341.333c0 46.932-38.4 85.332-85.333 85.332s-85.333-38.4-85.333-85.332v-341.333c0-46.933 38.4-85.333 85.333-85.333z" />
<glyph unicode="&#xe955;" glyph-name="empty-basket" d="M928.853 560.213c-8.107 9.813-20.053 15.787-32.853 15.787h-173.227l-85.76 228.267c-8.107 22.187-32.853 33.28-55.040 24.747-22.187-8.107-33.28-32.853-25.173-55.040l74.24-198.4h-239.36l74.24 198.4c8.107 22.187-2.987 46.507-25.173 55.040-22.187 8.107-46.507-2.987-55.040-24.747l-85.76-228.267h-171.947c-12.8 0-24.747-5.547-32.853-15.787-8.107-9.813-11.52-23.040-8.96-35.413l78.507-392.533c8.107-39.68 43.093-68.693 83.627-68.693h527.36c40.533 0 75.52 29.013 83.627 68.693l78.507 392.533c2.56 12.373-0.853 25.6-8.96 35.413zM775.68 149.333h-527.36l-68.267 341.333h89.173l-10.24-27.733c-8.107-22.187 2.987-46.507 24.747-55.040 5.12-1.707 9.813-2.56 14.933-2.56 17.067 0 33.707 10.667 40.107 27.733l21.76 57.6h303.36l21.76-57.6c6.4-17.067 22.613-27.733 40.107-27.733 5.12 0 10.24 0.853 14.933 2.56 22.187 8.107 33.28 32.853 24.747 55.040l-10.24 27.733h89.173l-68.267-341.333h-0.427z" />
<glyph unicode="&#xe956;" glyph-name="delivery" d="M933.12 426.24l-106.667 192c-7.68 13.653-21.76 21.76-37.12 21.76h-149.333v64c0 46.933-38.4 85.333-85.333 85.333h-384c-46.933 0-85.333-38.4-85.333-85.333v-426.667c0-46.933 38.4-85.333 85.333-85.333h7.68c17.493-49.493 64.427-85.333 120.32-85.333s102.4 35.84 120.32 85.333h143.787c17.493-49.493 64.427-85.333 120.32-85.333s102.4 35.84 120.32 85.333h93.013c23.467 0 42.667 19.2 42.667 42.667v170.667c0 7.253-1.707 14.507-5.547 20.907h-0.427zM298.667 192c-23.467 0-42.667 19.2-42.667 42.667s19.2 42.667 42.667 42.667c23.467 0 42.667-19.2 42.667-42.667s-19.2-42.667-42.667-42.667zM418.987 277.333c-17.493 49.493-64.427 85.333-120.32 85.333s-102.4-35.84-120.32-85.333h-7.68v426.667h384v-426.667h-135.68zM682.667 192c-23.467 0-42.667 19.2-42.667 42.667s19.2 42.667 42.667 42.667c23.467 0 42.667-19.2 42.667-42.667s-19.2-42.667-42.667-42.667zM853.333 277.333h-50.347c-17.493 49.493-64.427 85.333-120.32 85.333-14.933 0-29.44-2.987-42.667-7.68v199.68h124.16l89.173-160.427v-116.907z" />
<glyph unicode="&#xe957;" glyph-name="unpin" d="M298.667 832c0 23.467 19.2 42.667 42.667 42.667h341.333c23.467 0 42.667-19.2 42.667-42.667s-19.2-42.667-42.667-42.667h-42.667v-199.68c103.253-49.067 170.667-153.6 170.667-269.653 0-8.96-3.413-17.067-8.533-23.893l-87.040 87.040c-19.627 63.147-67.84 115.2-132.267 138.24-17.067 5.973-28.587 22.187-28.587 40.107v228.267h-85.333v-160.427l-85.333 85.333v75.093h-42.667c-23.467 0-42.667 19.2-42.667 42.667l0.427-0.427zM883.627 33.707c-8.533-8.533-19.2-12.373-30.293-12.373s-21.76 4.267-30.293 12.373l-243.627 243.627h-25.173v-213.333c0-23.467-19.2-42.667-42.667-42.667s-42.667 19.2-42.667 42.667v213.333h-213.333c-23.467 0-42.667 19.2-42.667 42.667 0 87.040 38.4 167.253 100.693 222.72l-215.893 216.32c-16.64 16.64-16.64 43.52 0 60.16s43.52 16.64 60.16 0l725.333-725.333c16.64-16.64 16.64-43.52 0-60.16h0.427zM302.933 362.667h191.147l-119.893 119.893c-36.267-30.72-61.867-72.533-71.68-119.893h0.427z" />
<glyph unicode="&#xe958;" glyph-name="attention" d="M549.12 769.28l341.333-597.333c7.253-13.227 7.253-29.44 0-42.667-7.68-13.227-21.76-21.333-37.12-21.333h-682.667c-15.36 0-29.44 8.107-37.12 21.333s-7.68 29.44 0 42.667l341.333 597.333c15.36 26.453 58.88 26.453 74.24 0zM512 662.187l-267.947-468.48h535.893l-267.947 468.48zM469.333 534.186v-128c0-23.467 19.2-42.667 42.667-42.667s42.667 19.2 42.667 42.667v128c0 23.467-19.2 42.667-42.667 42.667s-42.667-18.773-42.667-42.667zM512 320.853c-11.52 0-22.187-4.267-30.293-12.373s-12.373-18.773-12.373-30.293c0-11.093 4.693-22.187 12.373-30.293 15.787-15.787 44.373-15.787 60.587 0 7.68 8.107 12.373 19.2 12.373 30.293 0 11.52-4.267 22.187-12.373 30.293s-18.773 12.373-30.293 12.373z" />
<glyph unicode="&#xe959;" glyph-name="circle-cancel-outline" d="M512 832c-211.627 0-384-172.373-384-384s172.373-384 384-384c211.627 0 384 172.373 384 384s-172.373 384-384 384zM512 149.333c-164.693 0-298.667 133.973-298.667 298.667s133.973 298.667 298.667 298.667c164.693 0 298.667-133.973 298.667-298.667s-133.973-298.667-298.667-298.667zM670.293 606.293c-16.64 16.64-43.52 16.64-60.16 0l-97.707-97.707-97.707 97.707c-16.64 16.64-43.52 16.64-60.16 0s-16.64-43.52 0-60.16l97.707-97.707-97.707-97.707c-16.64-16.64-16.64-43.52 0-60.16 8.533-8.533 19.2-12.373 30.293-12.373s21.76 4.267 30.293 12.373l97.707 97.707 97.707-97.707c8.533-8.533 19.2-12.373 30.293-12.373s21.76 4.267 30.293 12.373c16.64 16.64 16.64 43.52 0 60.16l-97.707 97.707 97.707 97.707c16.64 16.64 16.64 43.52 0 60.16h-0.853z" />
<glyph unicode="&#xe95a;" glyph-name="shield" d="M798.259 773.214l-256.162 96.012c-19.209 7.255-40.559 7.255-59.767 0l-256.162-96.012c-33.301-12.375-55.501-44.379-55.501-79.796v-210.371c0-107.964 32.020-206.537 96.487-294.865 58.917-81.075 132.349-135.697 220.296-163.008 15.799-5.12 33.301-5.12 49.101 0 87.945 27.738 161.378 81.933 220.297 163.008 64.465 88.755 96.486 186.901 96.486 294.865v210.371c0 35.418-22.199 67.422-55.501 79.796h0.427zM768.375 483.046c0-86.199-24.337-164.288-72.58-234.697s-109.722-117.35-183.582-140.817c-73.86 23.467-135.338 70.409-183.581 140.817s-72.579 148.497-72.579 234.697v210.798l256.16 96.012 256.162-96.012v-210.798z" />
<glyph unicode="&#xe95b;" glyph-name="menu-close" d="M170.667 192c-23.564 0-42.667 19.102-42.667 42.667s19.103 42.667 42.667 42.667h469.333c23.565 0 42.667-19.102 42.667-42.667s-19.102-42.667-42.667-42.667h-469.333zM170.667 405.333c-23.564 0-42.667 19.102-42.667 42.667s19.103 42.667 42.667 42.667h341.333c23.565 0 42.667-19.102 42.667-42.667s-19.102-42.667-42.667-42.667h-341.333zM128 661.333c0 23.564 19.103 42.667 42.667 42.667h469.333c23.565 0 42.667-19.103 42.667-42.667s-19.102-42.667-42.667-42.667h-469.333c-23.564 0-42.667 19.103-42.667 42.667zM823.467 673.687c16.64 16.64 43.52 16.64 60.16 0 16.213-16.213 16.64-43.52 0-60.16l-165.547-165.548 165.547-165.973c16.64-16.64 16.64-43.52 0-60.16s-43.52-16.64-60.16 0l-195.84 195.84c-16.64 16.64-16.64 43.52 0 60.16l195.84 195.841z" />
<glyph unicode="&#xe95c;" glyph-name="check-calendar" d="M853.333 789.333h-128c0 23.467-19.2 42.667-42.667 42.667s-42.667-19.2-42.667-42.667h-256c0 23.467-19.2 42.667-42.667 42.667s-42.667-19.2-42.667-42.667h-128c-23.467 0-42.667-19.2-42.667-42.667v-554.667c0-70.4 57.6-128 128-128h512c70.4 0 128 57.6 128 128v554.667c0 23.467-19.2 42.667-42.667 42.667zM298.667 704c0-23.467 19.2-42.667 42.667-42.667s42.667 19.2 42.667 42.667h256c0-23.467 19.2-42.667 42.667-42.667s42.667 19.2 42.667 42.667h85.333v-85.333h-597.333v85.333h85.333zM768 149.333h-512c-23.467 0-42.667 19.2-42.667 42.667v341.333h597.333v-341.333c0-23.467-19.2-42.667-42.667-42.667zM609.707 435.627l-140.373-140.373-55.040 55.040c-16.64 16.64-43.52 16.64-60.16 0s-16.64-43.52 0-60.16l85.333-85.333c8.533-8.533 19.2-12.373 30.293-12.373s21.76 4.267 30.293 12.373l170.667 170.667c16.64 16.64 16.64 43.52 0 60.16s-43.52 16.64-60.16 0h-0.853z" />
<glyph unicode="&#xe95d;" glyph-name="dislike" d="M639.569 832h-383.573c-34.133 0-64.853-20.48-78.080-51.627l-139.093-324.693c-36.267-84.48 25.6-178.347 117.333-178.347h241.067l-40.533-195.413c-4.267-21.333 2.133-43.093 17.493-58.453 12.373-12.373 28.587-18.347 44.8-18.347s32.853 6.4 45.227 18.773l235.947 236.373c15.787 15.787 24.747 37.547 24.747 60.16v426.24c0 46.933-38.4 85.333-85.333 85.333zM454.822 135.253l26.027 124.587 21.333 102.827h-346.027c-20.053 0-30.72 11.947-35.413 19.2s-11.52 21.76-3.413 40.533l138.667 324.267h383.573v-426.24l-184.747-185.173zM895.996 832c-46.933 0-85.333-38.4-85.333-85.333v-341.333c0-46.933 38.4-85.333 85.333-85.333s85.333 38.4 85.333 85.333v341.333c0 46.933-38.4 85.333-85.333 85.333z" />
<glyph unicode="&#xe95f;" glyph-name="qr-zone" d="M170.667 576c-23.467 0-42.667 19.2-42.667 42.667v170.667c0 23.467 19.2 42.667 42.667 42.667h170.667c23.467 0 42.667-19.2 42.667-42.667s-19.2-42.667-42.667-42.667h-128v-128c0-23.467-19.2-42.667-42.667-42.667zM810.667 618.667c0-23.467 19.2-42.667 42.667-42.667s42.667 19.2 42.667 42.667v170.667c0 23.467-19.2 42.667-42.667 42.667h-170.667c-23.467 0-42.667-19.2-42.667-42.667s19.2-42.667 42.667-42.667h128v-128zM682.667 234.667h-341.333c-23.467 0-42.667 19.2-42.667 42.667v341.333c0 23.467 19.2 42.667 42.667 42.667h341.333c23.467 0 42.667-19.2 42.667-42.667v-341.333c0-23.467-19.2-42.667-42.667-42.667zM384 320h256v256h-256v-256zM853.333 64h-170.667c-23.467 0-42.667 19.2-42.667 42.667s19.2 42.667 42.667 42.667h128v128c0 23.467 19.2 42.667 42.667 42.667s42.667-19.2 42.667-42.667v-170.667c0-23.467-19.2-42.667-42.667-42.667zM170.667 64h170.667c23.467 0 42.667 19.2 42.667 42.667s-19.2 42.667-42.667 42.667h-128v128c0 23.467-19.2 42.667-42.667 42.667s-42.667-19.2-42.667-42.667v-170.667c0-23.467 19.2-42.667 42.667-42.667z" />
<glyph unicode="&#xe961;" glyph-name="cancel-small" d="M572.143 447.996l140.373 140.375c16.64 16.64 16.64 43.52 0 60.16s-43.52 16.64-60.16 0l-140.373-140.375-140.375 140.802c-16.64 16.64-43.52 16.64-60.16 0s-16.64-43.52 0-60.16l140.375-140.802-140.801-140.373c-16.64-16.64-16.64-43.52 0-60.16 8.533-8.533 19.2-12.8 30.293-12.8s21.76 4.267 30.293 12.373l140.375 140.8 140.373-140.373c8.533-8.533 19.2-12.8 30.293-12.8s21.76 4.267 30.293 12.373c16.64 16.64 16.64 43.52 0 60.16l-140.8 140.8z" />
<glyph unicode="&#xe963;" glyph-name="decimal-numbers" d="M896 789.333h-768c-46.933 0-85.333-38.4-85.333-85.333v-512c0-46.933 38.4-85.333 85.333-85.333h768c46.933 0 85.333 38.4 85.333 85.333v512c0 46.933-38.4 85.333-85.333 85.333zM128 192v512h768v-512h-768zM768 618.667h-128c-11.947 0-22.187-4.267-30.293-12.373s-12.373-18.347-12.373-30.293v-256c0-11.947 4.267-22.187 12.373-30.293s18.347-12.373 30.293-12.373h128c11.947 0 22.187 4.267 30.293 12.373s12.373 18.347 12.373 30.293v256c0 11.947-4.267 22.187-12.373 30.293s-18.347 12.373-30.293 12.373zM682.667 362.667v170.667h42.667v-170.667h-42.667zM512 618.667h-128c-11.947 0-22.187-4.267-30.293-12.373s-12.373-18.347-12.373-30.293v-256c0-11.947 4.267-22.187 12.373-30.293s18.347-12.373 30.293-12.373h128c11.947 0 22.187 4.267 30.293 12.373s12.373 18.347 12.373 30.293v256c0 11.947-4.267 22.187-12.373 30.293s-18.347 12.373-30.293 12.373zM426.667 362.667v170.667h42.667v-170.667h-42.667zM298.667 362.667h-85.333v-85.333h85.333v85.333z" />
<glyph unicode="&#xe964;" glyph-name="filter" d="M426.829 64c-7.681 0-15.788 2.133-22.615 6.396-12.373 7.676-20.053 21.321-20.053 36.245v243.921l-250.027 416.62c-8.107 13.219-8.107 29.424-0.427 43.069s21.76 21.748 37.12 21.748h682.668c15.36 0 29.44-8.102 37.12-21.748s7.253-29.85-0.427-43.069l-250.027-416.194v-158.635c0-16.205-8.96-31.13-23.467-37.952l-170.667-85.286c-5.973-2.982-12.373-4.689-19.2-4.689v-0.427zM246.348 746.288l217.174-362.040c3.84-6.822 5.973-14.071 5.973-21.747v-186.778l85.333 42.645v144.132c0 7.676 2.133 15.351 5.973 21.747l217.173 362.040h-531.628z" />
<glyph unicode="&#xe965;" glyph-name="statistics" d="M298.667 192h-170.667c-23.467 0-42.667 19.2-42.667 42.667v213.333c0 23.467 19.2 42.667 42.667 42.667h170.667c23.467 0 42.667-19.2 42.667-42.667v-213.333c0-23.467-19.2-42.667-42.667-42.667zM170.667 277.333h85.333v128h-85.333v-128zM597.333 192h-170.667c-23.467 0-42.667 19.2-42.667 42.667v554.667c0 23.467 19.2 42.667 42.667 42.667h170.667c23.467 0 42.667-19.2 42.667-42.667v-554.667c0-23.467-19.2-42.667-42.667-42.667zM469.333 277.333h85.333v469.333h-85.333v-469.333zM896 64h-768c-23.467 0-42.667 19.2-42.667 42.667s19.2 42.667 42.667 42.667h768c23.467 0 42.667-19.2 42.667-42.667s-19.2-42.667-42.667-42.667zM896 192h-170.667c-23.467 0-42.667 19.2-42.667 42.667v384c0 23.467 19.2 42.667 42.667 42.667h170.667c23.467 0 42.667-19.2 42.667-42.667v-384c0-23.467-19.2-42.667-42.667-42.667zM768 277.333h85.333v298.667h-85.333v-298.667z" />
<glyph unicode="&#xe966;" glyph-name="integer" d="M896 789.333h-768c-46.933 0-85.333-38.4-85.333-85.333v-512c0-46.933 38.4-85.333 85.333-85.333h768c46.933 0 85.333 38.4 85.333 85.333v512c0 46.933-38.4 85.333-85.333 85.333zM128 192v512h768v-512h-768zM768 618.667h-128c-11.947 0-22.187-4.267-30.293-12.373s-12.373-18.347-12.373-30.293v-256c0-11.947 4.267-22.187 12.373-30.293s18.347-12.373 30.293-12.373h128c11.947 0 22.187 4.267 30.293 12.373s12.373 18.347 12.373 30.293v256c0 11.947-4.267 22.187-12.373 30.293s-18.347 12.373-30.293 12.373zM682.667 362.667v170.667h42.667v-170.667h-42.667zM512 618.667h-128c-11.947 0-22.187-4.267-30.293-12.373s-12.373-18.347-12.373-30.293v-256c0-11.947 4.267-22.187 12.373-30.293s18.347-12.373 30.293-12.373h128c11.947 0 22.187 4.267 30.293 12.373s12.373 18.347 12.373 30.293v256c0 11.947-4.267 22.187-12.373 30.293s-18.347 12.373-30.293 12.373zM426.667 362.667v170.667h42.667v-170.667h-42.667zM298.667 618.667h-85.333v-341.333h85.333v341.333z" />
<glyph unicode="&#xe967;" glyph-name="filter-sort" d="M128 192c0-23.467 19.2-42.667 42.667-42.667h213.333v85.333h-213.333c-23.467 0-42.667-19.2-42.667-42.667zM128 704c0-23.467 19.2-42.667 42.667-42.667h384v85.333h-384c-23.467 0-42.667-19.2-42.667-42.667zM554.667 106.667v42.667h298.667c23.467 0 42.667 19.2 42.667 42.667s-19.2 42.667-42.667 42.667h-298.667v42.667c0 23.467-19.2 42.667-42.667 42.667s-42.667-19.2-42.667-42.667v-170.667c0-23.467 19.2-42.667 42.667-42.667s42.667 19.2 42.667 42.667zM298.667 533.333v-42.667h-128c-23.467 0-42.667-19.2-42.667-42.667s19.2-42.667 42.667-42.667h128v-42.667c0-23.467 19.2-42.667 42.667-42.667s42.667 19.2 42.667 42.667v170.667c0 23.467-19.2 42.667-42.667 42.667s-42.667-19.2-42.667-42.667zM896 448c0 23.467-19.2 42.667-42.667 42.667h-384v-85.333h384c23.467 0 42.667 19.2 42.667 42.667zM682.667 576c23.467 0 42.667 19.2 42.667 42.667v42.667h128c23.467 0 42.667 19.2 42.667 42.667s-19.2 42.667-42.667 42.667h-128v42.667c0 23.467-19.2 42.667-42.667 42.667s-42.667-19.2-42.667-42.667v-170.667c0-23.467 19.2-42.667 42.667-42.667z" />
<glyph unicode="&#xe968;" glyph-name="delete" d="M725.333 661.333h-426.667c-11.947 0-23.467-5.12-31.573-13.653-8.107-8.96-11.947-20.48-11.093-32.427l39.253-472.747c3.84-43.947 40.96-78.080 84.907-78.080h262.827c43.947 0 81.493 34.56 84.907 78.080l39.253 472.747c0.853 11.947-2.987 23.467-11.093 32.427s-19.627 13.653-31.573 13.653h0.853zM643.413 149.333h-262.827l-35.413 426.667h334.080l-35.413-426.667h-0.427zM810.667 746.667c0-23.467-19.2-42.667-42.667-42.667h-128c-11.093 0-22.187 4.693-30.293 12.373l-30.293 30.293h-135.253l-30.294-30.293c-8.107-8.107-18.773-12.373-30.293-12.373h-128c-23.467 0-42.667 19.2-42.667 42.667s19.2 42.667 42.667 42.667h110.507l30.293 30.293c8.107 8.107 18.773 12.373 30.293 12.373h170.667c11.093 0 22.187-4.693 30.293-12.373l30.293-30.293h110.080c23.467 0 42.667-19.2 42.667-42.667z" />
<glyph unicode="&#xe969;" glyph-name="loader" d="M512 21.76c-109.227 0-218.453 41.813-301.653 124.587-166.4 166.4-166.4 436.906 0 603.306 115.627 115.627 290.56 155.307 445.013 100.267 22.187-8.107 33.707-32.427 26.027-54.613-8.107-22.187-32.427-33.707-54.613-26.027-123.733 43.947-263.253 12.373-356.267-80.213-133.12-133.12-133.12-349.866 0-482.56s349.867-133.12 482.56 0c78.933 78.933 114.347 191.573 94.72 301.653-3.413 18.347-8.107 36.693-14.507 54.613-8.107 22.187 3.413 46.507 26.027 54.613 22.187 8.107 46.507-3.413 54.613-26.027 8.107-22.187 14.080-45.227 17.92-68.266 24.32-137.387-19.627-278.187-118.187-376.747-83.2-83.2-192.427-124.587-301.653-124.587z" />
<glyph unicode="&#xe96a;" glyph-name="cancel" d="M572.139 447.731l226.052 225.83c16.636 16.649 16.636 43.543 0 60.192s-43.503 16.649-60.139 0l-225.626-225.828-226.053 226.255c-16.634 16.649-43.931 16.649-60.565 0s-16.634-43.97 0-60.619l225.626-225.83-225.626-225.826c-16.634-16.649-16.634-43.541 0-60.19 8.53-8.542 19.193-12.382 30.282-12.382s21.752 4.271 30.283 12.382l225.626 225.826 225.626-225.826c8.529-8.542 19.196-12.382 30.285-12.382s21.751 4.271 30.281 12.382c16.636 16.649 16.636 43.541 0 60.19l-225.626 225.826h-0.427z" />
<glyph unicode="&#xe96b;" glyph-name="heart-outline" d="M512 106.667c-6.4 0-13.227 1.707-19.2 4.693-14.933 7.253-364.8 185.6-364.8 464.64 0 117.76 95.573 213.333 213.333 213.333 69.547 0 131.84-33.707 170.667-85.333 38.827 52.053 101.12 85.333 170.667 85.333 117.76 0 213.333-95.573 213.333-213.333 0-279.040-349.867-457.387-364.8-464.64-5.973-2.987-12.373-4.693-19.2-4.693zM341.333 704c-70.4 0-128-57.6-128-128 0-194.133 229.973-339.2 298.667-378.027 68.693 39.253 298.667 184.747 298.667 378.027 0 70.4-57.6 128-128 128s-128-57.6-128-128c0-23.467-19.2-42.667-42.667-42.667s-42.667 19.2-42.667 42.667c0 70.4-57.6 128-128 128z" />
<glyph unicode="&#xe96c;" glyph-name="cart-outline" d="M426.667 106.667c0-46.933-38.4-85.333-85.333-85.333s-85.333 38.4-85.333 85.333c0 46.933 38.4 85.333 85.333 85.333s85.333-38.4 85.333-85.333zM725.333 192c-46.933 0-85.333-38.4-85.333-85.333s38.4-85.333 85.333-85.333c46.933 0 85.333 38.4 85.333 85.333s-38.4 85.333-85.333 85.333zM932.693 725.76c7.68-12.8 7.68-29.013 0.427-42.24l-142.080-256c-7.68-13.653-21.76-21.76-37.12-21.76h-302.080l-47.36-85.333h363.52c23.467 0 42.667-19.2 42.667-42.667s-19.2-42.667-42.667-42.667h-363.52c-30.72 0-58.027 15.787-73.387 42.24s-15.787 58.027-0.853 84.48l48.213 86.613-190.293 340.907h-60.16c-23.467 0-42.667 19.2-42.667 42.667s19.2 42.667 42.667 42.667h60.16c31.147 0 59.733-16.64 74.667-43.947l46.507-84.053h586.667c14.933 0 29.013-8.107 36.693-20.907zM823.467 661.333h-466.347l94.72-170.667h276.907l94.72 170.667z" />
<glyph unicode="&#xe96d;" glyph-name="premium" d="M833.792 637.013c14.933 7.253 32.853 5.547 46.080-5.12h0.853c12.8-10.667 18.347-28.16 14.080-44.373l-85.333-321.28c-5.12-18.347-22.187-31.573-41.387-31.573h-511.999c-19.627 0-36.267 12.8-41.387 31.573l-85.333 321.28c-4.693 16.213 1.28 33.707 14.080 44.373 13.227 10.667 31.147 12.8 46.080 5.12l174.933-87.893 108.799 218.453c14.507 29.013 61.867 29.013 76.373 0l108.8-218.453 175.36 87.893zM255.66 106.667h511.999c23.467 0 42.667 19.2 42.667 42.667s-19.2 42.667-42.667 42.667h-511.999c-23.467 0-42.667-19.2-42.667-42.667s19.2-42.667 42.667-42.667z" />
<glyph unicode="&#xe96e;" glyph-name="user" d="M341.333 618.667c0-94.293 76.373-170.667 170.667-170.667s170.667 76.373 170.667 170.667c0 94.293-76.373 170.667-170.667 170.667s-170.667-76.373-170.667-170.667zM426.667 618.667c0 46.933 38.4 85.333 85.333 85.333s85.333-38.4 85.333-85.333c0-46.933-38.4-85.333-85.333-85.333s-85.333 38.4-85.333 85.333zM769.698 136.533c5.973-18.347 22.613-29.867 40.96-29.867 4.267 0 8.533 0.427 12.8 2.133 22.613 6.827 34.987 30.72 28.16 53.333-44.8 142.933-184.32 243.2-339.627 243.2s-294.827-100.267-339.2-243.627c-6.827-22.613 5.547-46.507 28.16-53.333s46.507 5.547 53.333 28.16c33.28 107.947 139.52 183.467 257.707 183.467s224.427-75.52 257.707-183.467z" />
</font>
</defs>
</svg>
